<svg id="Layer_1" data-name="Layer 1" xmlns="http://www.w3.org/2000/svg" viewBox="0 0 296.46 477.89"><defs><style>.cls-1{fill:none;stroke:#515151;stroke-width:5px;}</style></defs><path class="cls-1" d="M126.05,479.16a9.09,9.09,0,0,1-.69-4.07,10,10,0,0,1,3.73-6.85,9.77,9.77,0,0,1-.75-17.15,9.56,9.56,0,0,1-4-4.62c-1.47-3.79-.13-8.47,3.43-11.77a7.05,7.05,0,0,1-4.33-3.58c-1.27-2.9,0-6.84,3.43-9.1a3.45,3.45,0,0,0-.15-1.49c-.69-2.08-3.3-2.9-3.87-3.13-2.08-.84-4.23-4.84-4.63-18.63a84.84,84.84,0,0,1-7.73-14.29c-2.06-4.86-4.4-10.52-5.08-18.06-.48-5.15.37-6.13.29-11.33-.05-3.82-.57-9.87-4.45-20.55a137.85,137.85,0,0,0-14-28S82,298.67,59.47,256.11c-8.94-16.91-18.27-43.19-18.18-83.18A132.14,132.14,0,0,1,52,125.23C75,72.42,126,53,135.86,49.28a156.6,156.6,0,0,1,46.64-9.91A154.66,154.66,0,0,1,234.18,49.5c11.64,4.47,53.63,22.24,78.71,67.68a146.15,146.15,0,0,1,15.2,41.44,115.18,115.18,0,0,1,3.1,51c-2.06,12-5.58,20.23-12.64,36.61,0,0-12.82,29.79-27.13,45-.44.47-1.41,1.49-2.68,3-6.21,7.3-9.36,14-12.22,20.28-4.4,9.61-8.23,18.39-11.63,26.53.95,10.7,1.1,31.79-11.63,51.28-.77,1.17-6.75,4.21-8,10.14-.56,2.55.29,2.78-.3,5.36-1.48,6.5-7.52,7.86-7.15,11.93.23,2.53,2.6,2.37,3,5.07.67,4.76-6.3,8.23-5.07,11.33.47,1.17,1.5.75,3.2,2.67.38.43,2.8,3.17,2.47,6-.48,4-6.16,5.67-5.58,7.38.39,1.15,2.32.65,4.08,2.46,2.38,2.43,1.73,6.43,1.64,6.93a9.81,9.81,0,0,1-4.62,6.49,17.86,17.86,0,0,1,.9,7.15c-.64,7.64-6.43,12.68-12.23,17.59-1.72,1.46-8.39,7-20.27,12.23a109,109,0,0,1-22.66,7.15,96.43,96.43,0,0,1-56.55-33.05Z" transform="translate(-38.79 -36.86)"/></svg>