<?xml version="1.0" standalone="no"?>
<!DOCTYPE svg PUBLIC "-//W3C//DTD SVG 20010904//EN"
 "http://www.w3.org/TR/2001/REC-SVG-20010904/DTD/svg10.dtd">
<svg version="1.0" xmlns="http://www.w3.org/2000/svg"
 width="3075.000000pt" height="3075.000000pt" viewBox="0 0 3075.000000 3075.000000"
 preserveAspectRatio="xMidYMid meet">
<metadata>
Created by potrace 1.14, written by Peter Selinger 2001-2017
</metadata>
<g transform="translate(0.000000,3075.000000) scale(0.100000,-0.100000)"
fill="#000000" stroke="none">
<path d="M12265 28989 c-52 -52 -156 -122 -225 -149 -133 -53 -227 -72 -500
-100 -225 -23 -238 -26 -710 -130 -2311 -510 -4556 -1174 -6668 -1971 -307
-116 -969 -374 -1327 -517 -900 -360 -1423 -623 -1940 -973 -340 -230 -447
-328 -723 -657 l-153 -182 169 0 c124 0 172 -3 179 -12 6 -7 39 -98 73 -203
81 -244 139 -358 314 -618 78 -117 171 -261 206 -322 76 -130 150 -210 204
-221 61 -11 123 1 177 35 28 17 54 31 58 31 4 0 72 -104 151 -231 79 -127 148
-232 152 -235 4 -3 84 52 179 121 94 70 172 125 173 123 5 -7 167 -512 216
-672 58 -190 89 -260 149 -328 63 -71 134 -102 235 -102 152 0 249 37 371 144
43 38 80 68 82 66 1 -1 21 -92 43 -202 57 -278 48 -253 79 -213 93 122 227
229 320 256 101 29 204 4 325 -79 l59 -41 81 33 c191 77 308 162 655 479 351
320 569 446 855 496 133 23 128 24 106 -32 -10 -27 -77 -221 -150 -433 -287
-837 -381 -1064 -880 -2135 -237 -508 -335 -722 -452 -985 -495 -1112 -747
-1946 -848 -2805 -12 -99 -33 -234 -46 -300 -25 -117 -42 -185 -142 -550 -50
-180 -130 -543 -196 -880 -188 -971 -177 -1618 37 -2250 113 -333 228 -549
354 -666 47 -43 79 -62 148 -88 99 -38 228 -121 328 -212 37 -34 139 -143 226
-243 87 -99 196 -217 242 -261 186 -178 358 -255 566 -255 51 0 93 -4 93 -8 0
-5 31 -56 69 -113 147 -223 325 -368 720 -586 212 -117 254 -142 616 -368 572
-357 679 -415 765 -415 49 0 75 23 91 82 14 53 8 111 -36 378 -122 736 -173
1405 -162 2150 14 935 120 1739 347 2635 128 508 267 962 585 1925 259 782
348 1059 459 1425 240 789 493 1410 824 2015 200 367 360 619 683 1080 91 129
331 476 534 770 1141 1656 1535 2195 1889 2585 157 172 1026 1048 1064 1071
33 21 189 71 196 63 2 -2 6 -13 10 -24 4 -15 -22 -52 -114 -159 -66 -77 -120
-141 -120 -143 0 -6 126 63 309 170 176 103 305 165 406 196 218 68 3491 486
4500 575 1009 90 2152 84 3584 -19 603 -44 1071 -102 1523 -191 349 -68 579
-127 1455 -373 138 -39 254 -71 257 -71 10 0 -131 274 -156 302 -43 49 -479
402 -713 576 -461 344 -879 567 -1455 779 -367 134 -747 243 -1710 488 l-145
37 -230 2 -230 1 -45 27 c-25 14 -60 41 -77 60 l-33 34 25 59 c36 89 41 153
17 207 -25 57 -57 77 -202 122 -63 20 -121 40 -128 44 -11 7 -11 20 2 68 22
87 29 165 17 196 -11 30 -183 171 -275 227 -123 74 -142 78 -608 131 -1481
169 -2220 231 -3113 260 -388 13 -1747 13 -2499 0 -410 -7 -621 -7 -693 0
-211 22 -386 85 -523 190 l-65 49 -110 1 -111 0 -39 -41z m-179 -326 c3 -16
10 -45 16 -67 5 -21 6 -42 1 -46 -8 -7 -3639 -851 -3660 -850 -9 0 -37 90 -30
96 5 4 1282 364 1522 429 550 150 1114 283 1520 360 144 28 558 97 617 104 4
1 10 -11 14 -26z m5344 -67 c150 -27 322 -95 440 -175 33 -23 40 -31 25 -31
-27 -1 -1575 134 -1572 137 4 3 560 74 657 83 125 11 343 4 450 -14z m-1735
-100 c177 -25 329 -66 389 -106 l30 -19 -25 -9 c-13 -5 -120 -35 -236 -67
l-213 -58 0 -44 0 -43 600 0 600 0 0 -74 c0 -86 18 -76 -170 -101 -548 -72
-1129 -117 -2320 -180 -668 -35 -1194 -67 -1390 -85 -179 -17 -176 -18 -194
37 -9 25 -15 47 -13 48 1 1 54 29 117 62 196 103 172 98 743 153 282 28 611
62 732 76 222 25 677 88 744 103 36 8 35 8 -24 16 -90 12 -476 -1 -890 -30
-1134 -78 -1645 -116 -1685 -126 -25 -6 -73 -32 -110 -58 -163 -120 -327 -194
-565 -256 -165 -43 -311 -67 -650 -105 -533 -61 -576 -71 -1569 -360 -201 -58
-440 -112 -556 -125 l-55 -7 25 21 c378 317 1946 776 3728 1091 797 141 1472
223 2167 264 149 9 685 -4 790 -18z m-6227 -1504 c21 -66 27 -102 17 -102 -2
0 -287 -87 -632 -194 -346 -107 -826 -256 -1068 -330 -242 -75 -452 -141 -467
-146 -27 -9 -28 -8 -53 73 -15 51 -21 83 -15 87 6 4 189 62 408 130 218 68
701 219 1072 336 371 116 684 212 696 213 16 1 24 -11 42 -67z m4146 -47 l37
-55 -100 -128 c-142 -183 -186 -220 -366 -307 -249 -121 -420 -175 -548 -175
-29 0 -125 18 -213 39 -258 63 -321 74 -439 74 -104 0 -363 -33 -508 -65 -71
-15 -91 -6 -95 45 -6 70 15 118 81 182 77 76 137 97 352 125 179 23 709 119
1295 235 234 46 434 84 446 84 15 1 32 -15 58 -54z m-2310 -376 c14 -11 38
-41 52 -65 26 -44 26 -46 8 -59 -11 -7 -89 -65 -174 -129 -162 -120 -271 -188
-343 -213 -51 -18 -126 -12 -247 20 -79 20 -86 25 -102 58 -10 19 -21 63 -24
96 l-7 61 44 31 c23 18 50 30 58 29 14 -3 55 -49 122 -138 l26 -34 59 84 c81
117 121 154 178 169 25 6 89 34 141 61 109 57 163 65 209 29z m-669 -2886
c-65 -351 -260 -628 -510 -723 -99 -38 -269 -31 -329 13 -16 12 20 50 415 432
485 468 456 449 424 278z m-1141 -1089 l46 -7 -5 -111 c-14 -276 -28 -403 -59
-557 -50 -248 -96 -331 -210 -374 -37 -14 -63 -17 -129 -12 -45 3 -92 9 -103
12 -16 5 -32 -2 -59 -27 -93 -80 -163 -228 -395 -833 -61 -159 -115 -294 -120
-299 -5 -5 -22 19 -40 54 l-32 62 -112 -224 c-61 -123 -135 -284 -164 -358
-63 -165 -82 -201 -114 -219 -32 -18 -66 -6 -128 48 l-44 37 19 95 c59 309
174 554 500 1064 171 267 197 313 270 475 92 204 351 584 441 647 16 11 68 35
116 53 48 18 92 38 96 44 5 6 34 107 63 223 l54 213 31 0 c17 0 52 -3 78 -6z
m1069 -83 l24 -9 -52 -324 c-29 -177 -54 -331 -56 -340 -3 -15 -29 -6 -169 59
-91 41 -166 77 -168 78 -2 2 77 127 175 280 192 298 176 282 246 256z m-3034
-186 c-1707 -2595 -2888 -5522 -3644 -9034 -58 -270 -182 -895 -216 -1089 -7
-40 -16 -69 -20 -65 -12 13 -57 228 -76 363 -25 177 -24 618 0 820 43 346 113
682 277 1335 713 2831 1636 5185 2856 7281 175 300 163 286 165 194 0 -41 4
-115 8 -165 l6 -90 64 110 c35 61 102 175 149 254 l84 143 30 -46 c17 -25 35
-46 42 -46 6 1 94 47 196 105 102 57 186 102 187 101 2 -1 -47 -78 -108 -171z
m-153 -2133 l51 -27 -309 -665 c-170 -366 -313 -669 -317 -673 -4 -4 -47 25
-95 64 -62 51 -85 76 -81 87 21 55 679 1242 689 1242 6 -1 34 -13 62 -28z
m485 -465 c45 -72 60 -107 69 -160 20 -125 -37 -258 -211 -492 -140 -189 -185
-265 -227 -387 -27 -81 -33 -112 -33 -187 -1 -49 4 -115 11 -146 12 -56 11
-58 -26 -133 -20 -42 -67 -119 -103 -171 l-66 -96 -2 -145 c-2 -218 -32 -334
-155 -610 -134 -298 -166 -376 -202 -487 -61 -189 -222 -740 -261 -893 -44
-169 -65 -221 -140 -339 -94 -149 -133 -287 -154 -551 -25 -298 -38 -369 -197
-1060 -52 -228 -96 -419 -98 -424 -2 -10 -256 297 -256 310 0 6 72 1 185 -13
l50 -6 -32 36 c-36 41 -113 158 -143 218 l-21 41 30 156 c17 87 44 236 61 332
65 365 129 580 236 800 153 313 189 435 319 1090 88 436 120 548 275 940 142
359 219 561 425 1110 265 704 417 1095 441 1132 21 32 180 178 194 178 3 0 17
-19 31 -43z"/>
<path d="M26157 24141 c-526 -856 -961 -1562 -966 -1570 -11 -17 -24 -12 -254
98 l-169 81 179 156 c98 86 257 215 353 286 96 72 177 133 180 135 2 2 -17 25
-43 50 l-46 47 -78 -54 c-1918 -1325 -3746 -2923 -5303 -4635 -484 -533 -899
-1024 -1590 -1885 -249 -311 -553 -684 -674 -830 -343 -412 -406 -470 -506
-470 -38 0 -49 5 -85 43 -89 93 -123 258 -160 767 -9 118 -36 397 -60 620 -56
519 -63 594 -75 846 -16 357 7 677 95 1304 67 475 91 687 130 1115 19 215 37
415 40 446 l6 57 -46 4 -45 3 -15 -45 c-74 -229 -196 -714 -259 -1030 -116
-581 -160 -1015 -160 -1560 0 -508 23 -866 169 -2629 20 -239 34 -441 33 -450
-5 -22 -92 244 -138 424 -156 598 -221 1292 -206 2180 10 572 25 1130 36 1345
52 954 282 2021 688 3198 33 94 58 172 56 172 -1 0 -36 -44 -75 -97 l-73 -98
-31 114 -32 114 -99 -112 c-54 -61 -103 -111 -107 -111 -4 0 -6 15 -3 33 3 17
13 123 22 234 20 227 13 306 -27 349 -28 30 -238 170 -384 256 -299 176 -963
511 -1230 619 -301 122 -441 195 -1335 697 l-444 250 -59 -30 -59 -29 5 -477
c4 -411 8 -514 30 -747 45 -472 45 -689 1 -908 -20 -99 -130 -426 -236 -701
-124 -323 -283 -690 -608 -1406 -164 -360 -315 -695 -336 -744 -30 -69 -54
-105 -105 -160 l-66 -70 -32 14 c-26 10 -31 17 -27 34 3 12 176 435 385 941
209 506 378 922 375 924 -10 10 -139 -129 -190 -205 -66 -99 -83 -136 -304
-664 -224 -534 -276 -651 -418 -930 -141 -276 -192 -402 -316 -780 -126 -382
-176 -506 -291 -725 -471 -890 -800 -1691 -1190 -2900 -325 -1008 -432 -1310
-950 -2680 -286 -756 -489 -1301 -539 -1447 -20 -58 -26 -96 -26 -158 0 -117
45 -388 80 -488 36 -101 37 -144 5 -245 -14 -43 -37 -135 -52 -205 -25 -117
-27 -145 -27 -357 -1 -217 1 -237 28 -350 70 -299 189 -528 468 -900 240 -321
444 -553 787 -895 359 -358 643 -611 1157 -1031 300 -245 334 -271 698 -546
l299 -226 -6 314 c-4 193 -16 433 -31 623 -38 463 -49 740 -37 946 10 163 104
846 217 1570 127 821 272 1449 458 1995 106 312 178 485 352 847 290 605 447
985 915 2217 309 814 440 1142 508 1275 64 124 271 496 277 496 7 0 127 -163
187 -256 35 -55 162 -259 282 -454 323 -524 407 -649 729 -1069 115 -150 186
-294 234 -470 l26 -96 2 -679 c2 -373 5 -680 7 -682 2 -3 59 27 127 66 68 39
124 69 126 67 5 -5 115 -369 214 -707 128 -438 155 -512 314 -844 91 -190 252
-492 267 -501 4 -3 22 1 40 10 17 9 33 14 36 12 3 -3 29 -158 60 -344 30 -186
57 -345 60 -353 3 -8 38 84 78 205 83 254 135 376 320 750 551 1111 1336 2203
2315 3220 250 260 318 333 440 474 293 340 464 489 675 591 104 49 194 77 334
101 75 12 129 28 156 43 22 13 103 82 179 153 142 132 169 154 161 131 -2 -7
-38 -168 -79 -358 -41 -190 -192 -880 -335 -1535 -409 -1871 -583 -2684 -778
-3630 l-57 -280 -1 -210 c0 -184 3 -223 23 -314 81 -359 276 -666 577 -908
136 -109 558 -406 1255 -883 702 -480 810 -557 1165 -825 337 -255 487 -363
532 -382 19 -7 85 -17 148 -21 l113 -7 7 113 c12 191 2 240 -93 447 -215 468
-327 969 -372 1670 -5 88 -15 353 -20 588 -16 621 -3 788 115 1562 76 493 92
613 145 1080 119 1046 175 1318 457 2210 134 423 621 1802 674 1906 28 57 219
319 219 301 0 -5 -65 -222 -146 -483 -450 -1466 -642 -2150 -808 -2869 -265
-1153 -386 -2117 -386 -3075 0 -294 14 -669 29 -770 l7 -50 22 115 c13 63 43
273 67 465 24 193 69 521 99 730 31 209 65 468 76 575 29 282 47 398 87 550
30 117 36 159 43 315 5 113 14 199 24 232 24 78 73 143 143 189 l61 41 -19 29
c-11 16 -26 52 -34 79 -14 45 -14 56 0 104 14 44 33 70 125 166 60 63 118 131
128 152 11 21 32 94 47 163 231 1071 487 1929 860 2875 163 414 689 1652 838
1972 186 400 380 706 610 962 81 91 263 261 279 261 9 0 1 -72 -18 -160 -19
-81 -56 -168 -255 -592 -210 -447 -281 -608 -450 -1021 -928 -2257 -1486
-3879 -1884 -5477 -199 -800 -365 -1652 -451 -2315 -21 -156 -25 -700 -9
-1215 10 -364 11 -364 50 40 114 1174 325 2334 616 3385 142 514 516 1766 735
2465 451 1435 785 2339 1505 4078 387 934 539 1305 536 1308 -1 1 -15 -21 -30
-49 -35 -67 -123 -184 -212 -281 l-70 -76 -51 34 -52 35 125 288 c183 425 180
420 684 1173 562 842 925 1325 1338 1780 86 94 337 362 803 856 51 53 58 66
58 101 0 39 -2 41 -136 149 -162 129 -198 168 -271 294 -175 300 -345 437
-581 470 -97 13 -280 1 -560 -36 l-186 -24 -33 32 c-18 18 -33 35 -33 39 0 3
55 54 123 111 177 152 249 227 353 367 l93 124 -42 38 c-31 27 -49 36 -67 33
-43 -8 -494 -64 -510 -64 -14 0 -19 33 -34 208 -10 114 -19 208 -20 209 0 1
-195 12 -433 24 l-432 23 -127 341 c-70 187 -140 375 -156 418 l-30 78 -50
-51 c-79 -80 -146 -106 -213 -80 -14 5 -61 43 -103 83 -83 79 -126 111 -164
126 -23 9 -51 -36 -981 -1548z m2853 -1086 c0 -4 -1143 -1330 -1177 -1365 -13
-13 -14 -10 -8 30 37 229 273 598 580 906 189 189 320 292 487 380 100 52 118
60 118 49z m-13642 -3497 c-7 -5 -31 -7 -53 -6 l-40 3 -17 170 c-21 210 -53
599 -70 845 -19 284 -16 990 6 1240 31 366 68 619 138 940 l43 195 3 -1689 c2
-1345 0 -1691 -10 -1698z m8685 1805 c43 -13 77 -28 75 -33 -4 -12 -2777
-2450 -2786 -2450 -5 0 -22 15 -39 33 l-31 32 401 410 c1222 1250 1845 1880
1900 1921 160 121 294 145 480 87z m-11650 -1809 c29 -15 53 -27 55 -29 1 -1
-170 -380 -381 -841 -211 -461 -572 -1251 -802 -1754 -230 -503 -422 -919
-427 -925 -10 -11 -9 -3 18 190 28 202 92 461 172 695 131 385 285 709 672
1420 306 561 496 943 595 1198 15 39 32 72 37 72 5 0 32 -12 61 -26z m12371
-284 l67 -29 -14 -33 c-53 -125 -1000 -2215 -1007 -2222 -4 -4 -36 4 -70 20
-44 20 -60 32 -57 43 5 20 1009 2251 1013 2251 1 0 32 -13 68 -30z m-4425
-1007 c-8 -10 -300 -360 -649 -778 -350 -418 -982 -1174 -1404 -1680 -423
-506 -776 -928 -786 -938 -16 -17 -18 -17 -53 -1 -21 10 -37 22 -37 27 0 34
34 214 46 242 18 43 516 617 2017 2323 463 526 700 789 725 802 24 12 58 19
96 20 54 0 57 -1 45 -17z m2919 -2976 c-139 -581 -256 -1053 -260 -1049 -13
14 -28 138 -28 243 0 452 190 1210 420 1669 37 76 113 201 117 196 2 -2 -110
-479 -249 -1059z m-11963 -993 c36 -14 65 -31 65 -37 0 -15 -721 -1899 -731
-1910 -10 -13 -109 25 -109 42 0 29 174 603 269 891 54 162 131 376 171 475
67 168 253 565 265 565 2 0 34 -12 70 -26z m840 -2384 c-30 -146 -176 -868
-325 -1605 -149 -737 -299 -1476 -332 -1643 l-61 -303 -56 3 -56 3 -2 60 c-2
33 -10 186 -18 340 -33 635 -29 926 15 1070 12 39 68 163 125 277 119 237 136
287 450 1308 102 333 193 616 202 630 21 32 105 131 109 128 1 -2 -22 -122
-51 -268z"/>
<path d="M13743 8963 c-344 -443 -523 -717 -677 -1033 -167 -343 -256 -671
-281 -1031 l-7 -96 -62 17 c-46 13 -62 22 -64 37 -2 11 16 145 38 299 23 153
50 332 59 397 10 65 14 114 10 110 -4 -4 -35 -51 -69 -103 -175 -268 -244
-522 -195 -715 34 -131 97 -231 246 -390 50 -53 105 -125 133 -175 27 -46 72
-107 100 -135 58 -57 285 -229 293 -222 3 3 13 49 24 103 29 151 47 204 94
274 40 59 48 83 89 255 25 105 50 223 57 264 12 82 8 234 -11 351 -24 149 7
343 76 486 75 153 181 252 369 344 157 76 238 148 292 257 34 69 38 85 41 173
8 194 -38 281 -306 583 -57 64 -108 117 -112 117 -4 0 -66 -75 -137 -167z"/>
<path d="M19913 6999 c-143 -70 -185 -85 -353 -129 -573 -150 -840 -282 -1110
-548 -69 -68 -136 -130 -150 -137 -14 -7 -52 -16 -85 -20 -162 -19 -245 -73
-245 -159 0 -59 60 -177 120 -236 30 -30 88 -66 175 -110 92 -46 147 -81 190
-121 93 -86 176 -150 220 -170 48 -22 126 -24 164 -4 48 24 124 117 176 215
94 175 200 259 309 246 67 -8 139 -44 208 -106 l57 -50 -411 -493 c-716 -857
-772 -921 -837 -955 -80 -42 -102 -45 -156 -22 -60 26 -116 26 -139 1 -18 -19
-35 -113 -36 -187 0 -62 -27 -140 -62 -180 -18 -20 -85 -75 -151 -122 -150
-109 -213 -177 -312 -343 -152 -256 -169 -277 -335 -419 -66 -56 -90 -94 -90
-145 0 -48 24 -88 123 -202 64 -73 95 -98 204 -166 l42 -27 -28 -62 c-65 -143
-77 -309 -31 -416 26 -61 110 -144 173 -171 160 -69 384 -50 872 74 498 126
1008 323 1665 641 110 53 200 101 200 105 0 10 -113 71 -180 97 -122 47 -178
56 -345 56 -183 0 -228 -7 -548 -89 -227 -58 -364 -85 -432 -85 -42 0 -42 0
-53 48 -6 26 -8 50 -4 53 4 4 86 32 182 62 96 30 359 114 583 186 224 72 410
131 412 131 8 0 5 34 -3 47 -6 9 -134 -15 -507 -97 -275 -59 -501 -107 -503
-105 -2 1 41 52 95 111 599 661 683 761 1109 1329 293 390 640 889 697 1002
52 102 79 218 81 339 l1 112 -67 133 c-73 148 -205 379 -320 564 -236 378
-381 600 -391 602 -7 1 -85 -34 -174 -78z"/>
<path d="M16365 6990 c-200 -62 -242 -79 -460 -189 -244 -122 -948 -501 -1040
-560 -34 -21 -73 -35 -115 -42 -174 -27 -260 -93 -260 -200 0 -140 221 -351
575 -549 103 -58 113 -61 165 -58 109 8 215 77 293 193 56 82 134 163 180 187
78 39 150 35 325 -18 61 -18 82 -29 78 -39 -3 -8 -240 -310 -528 -672 -288
-362 -575 -723 -637 -802 l-114 -143 -18 23 c-10 13 -21 32 -25 41 -6 20 -14
23 -136 42 l-88 13 0 -131 0 -132 -56 -54 c-79 -78 -218 -238 -374 -430 -170
-210 -230 -279 -361 -416 -124 -130 -164 -198 -163 -280 2 -78 62 -169 169
-255 83 -67 89 -86 90 -324 0 -183 2 -205 23 -256 47 -118 148 -194 273 -205
72 -7 200 15 536 91 390 89 1160 310 1382 397 106 41 741 353 741 363 0 3 -46
28 -102 55 -142 69 -233 91 -398 97 -173 7 -280 -9 -600 -87 -283 -69 -458
-99 -470 -80 -12 20 -22 93 -13 101 4 4 150 50 323 103 974 296 925 280 922
306 -1 14 -6 28 -11 33 -4 4 -239 -44 -521 -108 -282 -63 -515 -113 -518 -111
-2 3 83 108 190 233 284 334 306 361 650 798 484 616 795 1025 943 1240 97
142 142 267 151 430 15 238 -45 409 -258 731 -115 175 -506 728 -516 731 -4 1
-106 -29 -227 -67z"/>
</g>
</svg>
