<svg id="UniLogo" xmlns="http://www.w3.org/2000/svg" viewBox="0 0 275.11 313.42"><defs><style>.cls-1,.cls-3{fill:#fff;}.cls-1{fill-rule:evenodd;}.cls-2{fill:none;}</style></defs><polygon class="cls-1" points="72.86 110.25 72.86 111.21 73.83 110.25 72.86 110.25"/><polygon class="cls-1" points="80.4 110.25 72.87 117.78 72.87 119.72 82.35 110.25 80.4 110.25"/><polygon class="cls-1" points="88.91 110.25 72.87 126.29 72.87 128.23 90.85 110.25 88.91 110.25"/><polygon class="cls-1" points="97.41 110.25 72.86 134.79 72.86 136.74 99.36 110.25 97.41 110.25"/><polygon class="cls-1" points="105.92 110.25 72.86 143.3 72.86 145.25 107.87 110.25 105.92 110.25"/><polygon class="cls-1" points="114.43 110.25 72.87 151.81 72.87 153.75 116.37 110.25 114.43 110.25"/><polygon class="cls-1" points="119.66 113.53 76.15 157.03 78.09 157.03 119.66 115.47 119.66 113.53"/><polygon class="cls-1" points="119.66 122.04 84.65 157.04 86.59 157.04 119.66 123.98 119.66 122.04"/><polygon class="cls-1" points="119.66 130.55 93.16 157.04 95.11 157.04 119.66 132.49 119.66 130.55"/><polygon class="cls-1" points="119.66 139.04 101.67 157.04 103.62 157.04 119.66 140.99 119.66 139.04"/><polygon class="cls-1" points="119.66 147.56 110.18 157.03 112.12 157.03 119.66 149.5 119.66 147.56"/><polygon class="cls-1" points="118.68 157.04 119.65 157.04 119.65 156.06 118.68 157.04"/><polygon class="cls-1" points="166.45 110.25 166.45 111.21 167.41 110.25 166.45 110.25"/><polygon class="cls-1" points="173.97 110.25 166.45 117.78 166.45 119.72 175.93 110.25 173.97 110.25"/><polygon class="cls-1" points="182.49 110.25 166.45 126.29 166.45 128.23 184.44 110.25 182.49 110.25"/><polygon class="cls-1" points="190.99 110.25 166.44 134.79 166.44 136.74 192.94 110.25 190.99 110.25"/><polygon class="cls-1" points="199.5 110.25 166.44 143.3 166.44 145.25 201.45 110.25 199.5 110.25"/><polygon class="cls-1" points="208.01 110.25 166.44 151.81 166.44 153.75 209.95 110.25 208.01 110.25"/><polygon class="cls-1" points="213.23 113.53 169.73 157.03 171.67 157.03 213.23 115.47 213.23 113.53"/><polygon class="cls-1" points="213.23 122.04 178.23 157.04 180.18 157.04 213.23 123.98 213.23 122.04"/><polygon class="cls-1" points="213.23 130.55 186.74 157.04 188.68 157.04 213.23 132.49 213.23 130.55"/><polygon class="cls-1" points="213.23 139.04 195.25 157.04 197.2 157.04 213.23 140.99 213.23 139.04"/><polygon class="cls-1" points="213.23 147.56 203.76 157.03 205.71 157.03 213.23 149.5 213.23 147.56"/><polygon class="cls-1" points="212.26 157.04 213.23 157.04 213.23 156.06 212.26 157.04"/><polygon class="cls-1" points="119.65 157.04 119.65 158 120.63 157.04 119.65 157.04"/><polygon class="cls-1" points="127.19 157.04 119.66 164.57 119.66 166.51 129.14 157.04 127.19 157.04"/><polygon class="cls-1" points="135.69 157.04 119.66 173.08 119.66 175.03 137.64 157.04 135.69 157.04"/><polygon class="cls-1" points="144.21 157.04 119.65 181.58 119.65 183.53 146.15 157.04 144.21 157.04"/><polygon class="cls-1" points="152.71 157.04 119.66 190.09 119.66 192.04 154.66 157.04 152.71 157.04"/><polygon class="cls-1" points="161.22 157.04 119.65 198.6 119.65 200.55 163.16 157.04 161.22 157.04"/><polygon class="cls-1" points="166.45 160.31 122.94 203.82 124.88 203.82 166.45 162.26 166.45 160.31"/><polygon class="cls-1" points="166.45 168.82 131.44 203.83 133.38 203.83 166.45 170.78 166.45 168.82"/><polygon class="cls-1" points="166.45 177.33 139.95 203.82 141.9 203.82 166.45 179.28 166.45 177.33"/><polygon class="cls-1" points="166.45 185.84 148.46 203.82 150.41 203.82 166.45 187.78 166.45 185.84"/><polygon class="cls-1" points="166.45 194.35 156.97 203.82 158.91 203.82 166.45 196.29 166.45 194.35"/><polygon class="cls-1" points="165.48 203.82 166.44 203.82 166.44 202.86 165.48 203.82"/><polygon class="cls-1" points="213.24 157.04 213.24 158 214.2 157.04 213.24 157.04"/><polygon class="cls-1" points="220.77 157.04 213.24 164.57 213.24 166.51 222.72 157.04 220.77 157.04"/><polygon class="cls-1" points="229.28 157.04 213.24 173.08 213.24 175.03 231.22 157.04 229.28 157.04"/><polygon class="cls-1" points="237.79 157.04 213.23 181.58 213.23 183.53 239.73 157.04 237.79 157.04"/><polygon class="cls-1" points="246.3 157.04 213.24 190.09 213.24 192.04 248.24 157.04 246.3 157.04"/><polygon class="cls-1" points="254.8 157.04 213.24 198.6 213.24 200.55 256.74 157.04 254.8 157.04"/><polygon class="cls-1" points="260.03 160.31 216.52 203.82 218.46 203.82 260.03 162.26 260.03 160.31"/><polygon class="cls-1" points="260.03 168.82 225.02 203.83 226.97 203.83 260.03 170.78 260.03 168.82"/><polygon class="cls-1" points="260.03 177.33 233.53 203.82 235.47 203.82 260.03 179.28 260.03 177.33"/><polygon class="cls-1" points="260.03 185.84 242.05 203.82 243.99 203.82 260.03 187.78 260.03 185.84"/><polygon class="cls-1" points="260.03 194.35 250.55 203.82 252.5 203.82 260.03 196.29 260.03 194.35"/><polygon class="cls-1" points="259.05 203.82 260.01 203.82 260.01 202.86 259.05 203.82"/><polygon class="cls-1" points="213.24 250.62 213.24 251.59 214.2 250.62 213.24 250.62"/><polygon class="cls-1" points="220.77 250.62 213.24 258.15 213.24 260.09 222.72 250.62 220.77 250.62"/><polygon class="cls-1" points="229.28 250.62 213.24 266.66 213.24 268.61 231.22 250.62 229.28 250.62"/><path class="cls-1" d="M15.86,168.8v0Zm0,8.51v0Z" transform="translate(57 36)"/><path class="cls-1" d="M15.86,183.87v1.94l.41-.41c-.07-.58-.15-1.15-.21-1.73Zm0,8.5v1.95l2-2-.45-1.49Zm11.79,22.25h2l1.16-1.16c-.31-.34-.61-.69-.91-1Zm35,24.54v2L64,239.73,62.81,239Z" transform="translate(57 36)"/><polygon class="cls-1" points="165.47 297.41 166.44 297.41 166.44 297.39 165.73 297.14 165.47 297.41"/><path class="cls-1" d="M156.23,239.17v1.94l6-6q-2.61,1.74-5.36,3.41Z" transform="translate(57 36)"/><polygon class="cls-1" points="72.86 203.82 72.86 204.79 73.83 203.82 72.86 203.82"/><polygon class="cls-1" points="80.4 203.82 72.87 211.35 72.87 213.3 82.35 203.82 80.4 203.82"/><path class="cls-1" d="M31.91,167.82,16.06,183.67c.06.57.14,1.16.22,1.73l17.57-17.58Zm8.5,0-23,23c.15.49.3,1,.46,1.49l24.45-24.46Zm8.51,0L19.75,197c.2.44.4.89.63,1.33l30.49-30.5Zm8.51,0L22.68,202.57c.24.41.49.8.74,1.21l35.95-36Zm5.23,3.28L26.07,207.68c.28.37.55.75.83,1.11l35.76-35.74Zm0,8.51L29.84,212.42l.92,1.05,31.9-31.91Z" transform="translate(57 36)"/><polygon class="cls-1" points="119.65 224.12 93.16 250.62 95.11 250.62 119.65 226.07 119.65 224.12"/><polygon class="cls-1" points="119.65 232.63 101.66 250.62 103.61 250.62 119.65 234.57 119.65 232.63"/><polygon class="cls-1" points="119.65 241.14 110.18 250.61 112.12 250.61 119.65 243.08 119.65 241.14"/><polygon class="cls-1" points="118.68 250.62 119.64 250.62 119.64 249.65 118.68 250.62"/><polygon class="cls-1" points="166.44 203.82 166.44 204.79 167.41 203.82 166.44 203.82"/><polygon class="cls-1" points="173.97 203.82 166.45 211.35 166.45 213.3 175.93 203.82 173.97 203.82"/><polygon class="cls-1" points="182.48 203.82 166.44 219.87 166.44 221.81 184.43 203.82 182.48 203.82"/><polygon class="cls-1" points="190.99 203.82 166.44 228.37 166.44 230.32 192.94 203.82 190.99 203.82"/><polygon class="cls-1" points="199.5 203.82 166.44 236.88 166.44 238.83 201.44 203.82 199.5 203.82"/><polygon class="cls-1" points="208.01 203.82 166.44 245.39 166.44 247.33 209.95 203.82 208.01 203.82"/><polygon class="cls-1" points="171.68 250.62 213.24 209.05 213.24 207.1 169.72 250.62 171.68 250.62"/><polygon class="cls-1" points="180.17 250.62 213.24 217.56 213.24 215.62 178.23 250.62 180.17 250.62"/><polygon class="cls-1" points="188.69 250.62 213.23 226.07 213.23 224.12 186.74 250.62 188.69 250.62"/><polygon class="cls-1" points="197.19 250.62 213.23 234.57 213.23 232.63 195.25 250.62 197.19 250.62"/><polygon class="cls-1" points="205.7 250.62 213.23 243.08 213.23 241.14 203.75 250.62 205.7 250.62"/><polygon class="cls-1" points="212.26 250.62 213.23 250.62 213.23 249.65 212.26 250.62"/><polygon class="cls-1" points="119.65 250.62 119.65 251.58 120.62 250.62 119.65 250.62"/><polygon class="cls-1" points="119.65 260.09 129.13 250.62 127.18 250.62 119.65 258.15 119.65 260.09"/><polygon class="cls-1" points="119.65 266.66 119.65 268.6 137.64 250.62 135.69 250.62 119.65 266.66"/><path class="cls-1" d="M87.21,214.62,62.81,239l1.22.74,25.12-25.12Zm8.5,0L68.17,242.16l1.23.71,28.26-28.25Zm8.51,0L73.63,245.21l1.27.67,31.26-31.26Zm5.23,3.28L79.22,248.13l1.28.66,29-28.94Zm0,8.5L84.91,251l1.3.63,23.24-23.23Zm0,8.51L90.7,253.66c.44.21.89.42,1.33.61l17.42-17.41Zm0,8.51L96.59,256.28c.46.2.92.38,1.36.58l11.5-11.49Zm0,8.51-6.85,6.85,1.39.55,5.46-5.46Z" transform="translate(57 36)"/><polygon class="cls-1" points="165.74 297.14 166.44 297.39 166.44 296.44 165.74 297.14"/><path class="cls-1" d="M180.78,214.62l-23.87,23.87q2.75-1.68,5.36-3.41l20.46-20.46Z" transform="translate(57 36)"/><polygon class="cls-1" points="214.33 109.14 212.13 109.14 167.55 109.14 165.35 109.14 120.76 109.14 118.55 109.14 72.86 109.14 72.86 109.28 260.02 109.28 260.02 109.14 214.33 109.14"/><path class="cls-1" d="M15.86,75.34H61.55v44.59H15.86v2.2H61.55v44.59H15.86v2.21H61.55v44.5H30.72c.7.79,1.44,1.58,2.19,2.37H61.47v22.37c.77.49,1.56,1,2.37,1.46V215.8h44.41V261l.47.17.73.26.72-.26.46-.17V215.8h44.42v23.83l2.37-1.46V215.8H186q1.14-1.19,2.19-2.37H157.33v-44.5H203v-2.21h-45.7V122.13H203v-2.2h-45.7V75.34H203v-2H15.86Zm94.69,44.59h44.58V75.34H110.55Zm0,46.78h44.58V122.13H110.55Zm0,2.22h44.58v44.5H110.55Zm-46.8-49h44.58V75.34H63.75Zm0,46.78h44.58V122.13H63.75Zm0,2.22h44.6v44.5H63.75Z" transform="translate(57 36)"/><polygon class="cls-1" points="71.78 106.28 260.9 106.28 260.9 104.07 71.78 104.07 71.78 106.28"/><path class="cls-1" d="M82.35,53a2.28,2.28,0,0,0-2.88.43,1,1,0,0,0,1.44,1.29,1,1,0,0,0-.07-1.37h0A1.85,1.85,0,0,1,82.35,53Zm-.64,1.77A1,1,0,0,0,81.08,56a1,1,0,0,0,1.85-.6h0a1.83,1.83,0,0,1,1.48.46,2.26,2.26,0,0,0-2.7-1.06ZM83,57a1,1,0,1,0,.75,1.15h0a1.85,1.85,0,0,1,1,1.14A2.25,2.25,0,0,0,83,57Zm-3.82-5.45a2.28,2.28,0,0,0-2.28,1.81,1,1,0,0,0,1.89.4A1,1,0,0,0,78,52.64h0a1.87,1.87,0,0,1,1.14-1.06ZM75,24.66a1,1,0,0,0-.88-1.73h0a1.79,1.79,0,0,1,.22-1.53,2.28,2.28,0,0,0-.64,2.83,1,1,0,0,0,1.3.43Zm1.66-1a1,1,0,0,0,1-.92,1,1,0,0,0-.91-1h0a1.79,1.79,0,0,1,1-1.22,2.29,2.29,0,0,0-2,2.13,1,1,0,0,0,.92,1Zm1.95,0A1,1,0,1,0,79.62,22h0a1.81,1.81,0,0,1,1.44-.57,2.26,2.26,0,0,0-2.77.86,1,1,0,0,0,.28,1.34Zm-5.88,3h0a1,1,0,1,0,1-1.62,1,1,0,0,0-1.34.29h0a1.87,1.87,0,0,1-.58-1.45,2.26,2.26,0,0,0,.87,2.77ZM54.21,53.31a2.28,2.28,0,0,0-2.9.24,1,1,0,1,0,1.37,0h0a1.81,1.81,0,0,1,1.53-.25Zm-.27,3.58a1,1,0,0,0,.69-1.17h0a1.91,1.91,0,0,1,1.46.55A2.29,2.29,0,0,0,53.45,55a1,1,0,1,0,.49,1.86Zm.63.48a1,1,0,0,0-1.19.68,1,1,0,1,0,1.87.51h0a1.84,1.84,0,0,1,1,1.2,2.27,2.27,0,0,0-1.66-2.39Zm-5.85-4h0a1,1,0,1,0,1.2-.67h0a1.83,1.83,0,0,1,1.2-1,2.3,2.3,0,0,0-2.39,1.66ZM31.38,55.66a1,1,0,0,0-.89,1.05,1,1,0,0,0,1.06.87.94.94,0,0,0,.87-1h0a1.88,1.88,0,0,1,1.35.77,2.28,2.28,0,0,0-2.39-1.64Zm.72,2.49a1,1,0,1,0-.8,1.77,1,1,0,0,0,1.27-.49h0a1.85,1.85,0,0,1,.78,1.35,2.3,2.3,0,0,0-1.26-2.63Zm-2,2.3A1,1,0,1,0,31.25,62h0a1.85,1.85,0,0,1,0,1.56,2.3,2.3,0,0,0,.23-2.91,1,1,0,0,0-1.35-.23Zm2.25-6.36a2.27,2.27,0,0,0-2.9-.23,1,1,0,1,0,1.35.23h0a1.83,1.83,0,0,1,1.55,0Zm12-7.56a5.58,5.58,0,0,0,1.71-1.3,4.68,4.68,0,0,0,.45-.57,4.35,4.35,0,0,0-.51,0,5.61,5.61,0,0,0-2.18.43,5.85,5.85,0,0,0-1.78,1.21,7.08,7.08,0,0,0-.66.79,5.48,5.48,0,0,0,.81,0,5.74,5.74,0,0,0,2.16-.55Z" transform="translate(57 36)"/><path class="cls-1" d="M49.11,55a3.7,3.7,0,0,0-1.19.44,3.19,3.19,0,0,1-.64.32c-1.16.28-2.64-1.69-2.64-3.06,0-1,.89-2,2.24-2.71a3.87,3.87,0,0,0,2.29-3.41A3.48,3.48,0,0,0,49,45.48a5.56,5.56,0,0,0-1.88-.74,6.13,6.13,0,0,1-4.86,2.87,7.15,7.15,0,0,1-1.14,0,4.59,4.59,0,0,0-.24.5,5.78,5.78,0,0,0-.24.7,2.86,2.86,0,0,1,.45,1.49c0,1.64-2.84,3.09-5.47,3.09a4.86,4.86,0,0,1-1.74-.27,4.17,4.17,0,0,1-.67-.33,6.17,6.17,0,0,0,3.11,2.72,6,6,0,0,0,1.78.41l.11.09a3.7,3.7,0,0,1-3,1.4,3.21,3.21,0,0,1-.63-.06,5.22,5.22,0,0,0,3.27,1.27,5.44,5.44,0,0,0,1.67-.23A3.13,3.13,0,0,1,37,60.54a4.44,4.44,0,0,0,3,.08,4.89,4.89,0,0,0,1.28-.68,2.71,2.71,0,0,1-1,2.25,3.11,3.11,0,0,1-.38.25,3.66,3.66,0,0,0,2.4-.82,3.47,3.47,0,0,0,.82-.9,2.28,2.28,0,0,1-.15,2.09,2,2,0,0,1-.23.32,3.15,3.15,0,0,0,1.68-1.36,3.43,3.43,0,0,0,.28-.58,4.1,4.1,0,0,0,.53.15,2.28,2.28,0,0,0,1.07,0,5.18,5.18,0,0,1,.87-.11,2.6,2.6,0,0,1-.5-.91,7.33,7.33,0,0,0,2.33,1.19,3.29,3.29,0,0,0,4-3.73A3.3,3.3,0,0,0,49.11,55Z" transform="translate(57 36)"/><path class="cls-1" d="M77.37,55.06a4,4,0,0,0-.69.24,1.69,1.69,0,0,1-.27.11c-1.53.42-6-3.36-7.15-8.93a10.85,10.85,0,0,0,5.18-1.59,4.86,4.86,0,0,1,1.14,3.42,5.72,5.72,0,0,1-.12.83,6.76,6.76,0,0,0,1.8-4.23,7.15,7.15,0,0,0-.2-2.13l0-.05a4.18,4.18,0,0,1,2.58,2.71,4.22,4.22,0,0,1,.14.69A5.75,5.75,0,0,0,80,42.24a6.22,6.22,0,0,0-.82-1.7A3.52,3.52,0,0,1,82.1,42a5.29,5.29,0,0,1,.32.5,5,5,0,0,0-1-3.17,4.87,4.87,0,0,0-1.16-1.11,3,3,0,0,1,2.74.29,2.44,2.44,0,0,1,.4.32,4.17,4.17,0,0,0-1.7-2.26A4.39,4.39,0,0,0,80.52,36v0a2.55,2.55,0,0,1,2.24-.53,2,2,0,0,1,.41.13,3.62,3.62,0,0,0-2-1.31l-.34-.06a.43.43,0,0,0,0,0,2.63,2.63,0,0,0,1.3-2.6,2.37,2.37,0,0,0-.33-1A6.66,6.66,0,0,1,81,27.28a3.29,3.29,0,1,0-5.9,2h0a7.09,7.09,0,0,0,2.19,1.61,2.14,2.14,0,0,1-1.93-.54c.52,3.92-2.68,9.39-7.44,9.47v.58c-.1,2-1,2.78-1.69,3a2.35,2.35,0,0,1-.74.13,3.75,3.75,0,0,1-2.72-1.62,6.94,6.94,0,0,1-.58-.75.81.81,0,0,0,.08.18l.5,1.25a4.62,4.62,0,0,1-3.13-3,2.81,2.81,0,0,0,.06.36l.29,1.42a7.64,7.64,0,0,1-3.47-4l-.06.81a6.66,6.66,0,0,1-2.07-3.28,2.87,2.87,0,0,1-3,2.87H31.05a2.53,2.53,0,0,1-2.35-1.55,2.61,2.61,0,0,1,1.43-3.51c1.44-.57,2.85.16,4.1.88s2.31,1.45,3.52,2.11a9.66,9.66,0,0,0,4.06,1.34,6.47,6.47,0,0,0,4.85-1.8,6.59,6.59,0,0,0,1.45-7.44,6.73,6.73,0,0,0-2.34-2.73,6.13,6.13,0,0,0-4-1c-.7.1-1.41.22-2.12.31a16.19,16.19,0,0,1-2,.23,2.8,2.8,0,0,1-2.67-2,6.24,6.24,0,0,1-.16-1.24,6.19,6.19,0,0,0-.09,1.07,3.09,3.09,0,0,0,0,.43.18.18,0,0,0,0,.06,2.77,2.77,0,0,0,.24.94,3.48,3.48,0,0,0,1.5,1.69,4.13,4.13,0,0,0,1.08.4,5,5,0,0,1-3.18,2.23,6.6,6.6,0,0,1-.72.15,7.75,7.75,0,0,0,4,0,7.16,7.16,0,0,0,1.35-.47,3.83,3.83,0,0,0,.22,1.5,3.47,3.47,0,0,0,2.42,2.2,3,3,0,0,0,.79.09h.28a4.93,4.93,0,0,0,.5-.07,5.66,5.66,0,0,1-1.35-.33,2.79,2.79,0,0,1-1.45-1.7,2.38,2.38,0,0,1,.5-2.26,2.1,2.1,0,0,1,.84-.57,2.69,2.69,0,0,1,.93-.08,3.66,3.66,0,0,1,2.11,1.11,3.78,3.78,0,0,1,1,2.12,3.84,3.84,0,0,1-3.29,4.27,6.79,6.79,0,0,1-3.95-1.34c-1.19-.71-2.32-1.5-3.54-2.17a8.15,8.15,0,0,0-4-1.2,6.43,6.43,0,0,0-4,1.54,5.68,5.68,0,0,0-1.34,1.59,6.4,6.4,0,0,0,2.71,8.76,6.29,6.29,0,0,0,2,.62,12.85,12.85,0,0,0,1.86.06H37c-1,1.77-2.6,3.93-4.55,3.93-4.66,0-7.12-2.6-6.93-5.34a4.83,4.83,0,0,1,.13-.76,6.34,6.34,0,0,0-1.77,3.87,6,6,0,0,0,.15,2,3.78,3.78,0,0,1-2.48-3.25,5.31,5.31,0,0,0-.29,3.61A5,5,0,0,0,22,47.64a3.26,3.26,0,0,1-2.65-1.39,3.33,3.33,0,0,1-.28-.48,4.62,4.62,0,0,0,.81,3,4.32,4.32,0,0,0,1,1,2.75,2.75,0,0,1-2.53-.34,2.6,2.6,0,0,1-.36-.3,3.91,3.91,0,0,0,1.51,2.13,4,4,0,0,0,1.14.55,2.35,2.35,0,0,1-2.12.45,1.63,1.63,0,0,1-.37-.13A3.31,3.31,0,0,0,20,53.42a3.22,3.22,0,0,0,1.66,0A2.63,2.63,0,0,0,22.18,57a5.47,5.47,0,0,1,1,1,2.49,2.49,0,0,1,.53-1.13A7,7,0,0,0,24,59.53a3.37,3.37,0,0,0,1.38,1.59,3.29,3.29,0,1,0,3.3-5.7,3.49,3.49,0,0,0-.39-.19L27.9,55c-2.41-1.15.08-5.17,2.57-5.17,1.85,0,1.8,2.49,5.25,2.49a4.8,4.8,0,0,0,4-2.66,2.93,2.93,0,0,0,.24-.51,2.79,2.79,0,0,0,.12-.34s0-.08,0-.12a3.27,3.27,0,0,1,.14-.46c0-.1.1-.28.18-.48a6.13,6.13,0,0,1,8.66-2.86c3.29,1.71,7,5.26,13.85,5.26h.12a4.88,4.88,0,0,1-4.56.62,6.41,6.41,0,0,1-.75-.35,6.82,6.82,0,0,0,3.52,2.95,6.93,6.93,0,0,0,2.17.44A4.14,4.14,0,0,1,60,55.54a4,4,0,0,1-.7-.06A5.76,5.76,0,0,0,63,56.83a6,6,0,0,0,1.86-.29,3.57,3.57,0,0,1-2.21,2.35,3.1,3.1,0,0,1-.58.15,4.85,4.85,0,0,0,3.32,0,4.53,4.53,0,0,0,1.4-.77,3,3,0,0,1-1.08,2.53,2.36,2.36,0,0,1-.42.28,4.13,4.13,0,0,0,2.65-1,4.17,4.17,0,0,0,.9-1,2.59,2.59,0,0,1-.13,2.34,2.8,2.8,0,0,1-.25.35,3.54,3.54,0,0,0,1.84-1.54,2.29,2.29,0,0,0,.16-.31,2.64,2.64,0,0,0,2.59,1.27l.21,0a7.06,7.06,0,0,1,2.1-.13,2.59,2.59,0,0,1-.42-.87,7.39,7.39,0,0,0,2,1.17l.12,0a3.26,3.26,0,0,0,1.76.08,3.29,3.29,0,0,0-1.47-6.41ZM39.84,29a9.24,9.24,0,0,1-.12-2.29,8.94,8.94,0,0,1-3.25,1.12,4.72,4.72,0,0,0,1.34-1.05,4.25,4.25,0,0,0,.77-1.1,3.75,3.75,0,0,1-2.34-.89c2,1,5.41.49,5.41.49A4.12,4.12,0,0,0,39.84,29Z" transform="translate(57 36)"/><path class="cls-2" d="M62,32c0,.12,0,.23,0,.35.75,2,1.41,3.69,1.47,3.67s-.53-1.76-1.23-3.75A1,1,0,0,1,62,32" transform="translate(57 36)"/><path class="cls-1" d="M69.71,31.38a4.65,4.65,0,0,0-2-3.74q-.08-.29-.18-.57a5.7,5.7,0,0,0-.4-.91c1-1.19,1.42-2.41.93-2.95-.35-.38-1-.35-1.89,0A2.69,2.69,0,0,1,64,23.14a7.27,7.27,0,0,0-1-.39.56.56,0,0,1-.39-.51l0-.7-.63.7a.67.67,0,0,1-.54.23h-.12a.41.41,0,0,1-.36-.27l-.34-.83-.33.83a.64.64,0,0,1-.46.38l-.13,0a.79.79,0,0,1-.76-.25l-.59-.65,0,.88a.79.79,0,0,1-.43.68l-.11.06a.61.61,0,0,1-.6,0l-.78-.43.28.86a.39.39,0,0,1-.12.43l-.08.08a.73.73,0,0,1-.57.18l-.93-.14.43.55a.57.57,0,0,1,0,.65,5.84,5.84,0,0,0-.52.95,2.64,2.64,0,0,1-1.64,1.44c-.85.27-1.42.71-1.43,1.22,0,.73,1.07,1.4,2.61,1.66a7.9,7.9,0,0,0,.27.95c.07.19.15.38.23.56a4.65,4.65,0,0,0,.85,4.17s-.34-1.7,1-1.6c0,0-.68,2.72,2.42,5.2,0,0-.39-1.87.77-1.49a4.33,4.33,0,0,0,1.88,3.07,1,1,0,0,1,.33-1.48S64,43.64,66,42.92s1.19-4.62,1.19-4.62a1,1,0,0,1,1.22.93,4.38,4.38,0,0,0-.54-3.57c.64-1,1.55.65,1.55.65.78-3.89-1.49-5.53-1.49-5.53.94-.92,1.78.6,1.78.6ZM53.65,30.14c-.79-.14-1.37-.57-1.31-.95s.77-.6,1.56-.46l.22,0-.33.06.25.07-.64.16H54l-.7.37.77-.17-.47.42.6-.31-.15.23.2-.12a5.34,5.34,0,0,0,0,.69,2.67,2.67,0,0,1-.68,0Zm9-1.8s0-.1,0-.15a1.8,1.8,0,0,0,.06-.48,3.57,3.57,0,0,0-.07-.63,2,2,0,0,0-.07-.26l0-.12.1-.07a1.92,1.92,0,0,0,.5-.48l.51-.78L63.5,26l.23-.14.15-.05.07,0,.06,0,0,0h.12l.09,0h0a.2.2,0,0,0,.1-.07l0,0a.15.15,0,0,0,.06-.09l.14-.38.18.36a.87.87,0,0,0,.07.17,0,0,0,0,0,0,0h0a2.05,2.05,0,0,1-.64,2.22l-.23.17L63.8,28a2,2,0,0,0,.69-1.51,2.07,2.07,0,0,1-1,1.24,1.61,1.61,0,0,0,.08.38l0,.06s0,.07,0,.11l.08.17-.18.06a2,2,0,0,1-.72.1h-.25Zm-6.7.76h0v0a1.89,1.89,0,0,1-.06-.18l-.1-.38.35.19a.25.25,0,0,0,.11,0h0a.48.48,0,0,0,.12,0l0,0,.1,0,.07-.08,0-.05,0-.06.07,0,.16-.05.26-.05L56.55,28l.89.27a1.67,1.67,0,0,0,.68.05h.13l.06.12.11.24a3.41,3.41,0,0,0,.36.52,1.53,1.53,0,0,0,.35.33.35.35,0,0,0,.13.08l.22.12-.19.16a1.81,1.81,0,0,1-.62.39l-.17.07,0-.17a.83.83,0,0,0,0-.12s0,0,0-.05h0a2.31,2.31,0,0,0-.18-.35,2,2,0,0,1-1.61-.27,2,2,0,0,0,1.5.72l0,.33-.29,0a2,2,0,0,1-1.92-1.29Zm9.75,2.56a2.19,2.19,0,0,1-1.2,1.08l-.15,0c.49,2.25.36,4-.44,4.28s-2-1-3.08-3l-.15.06a2.23,2.23,0,0,1-.72.13,2.08,2.08,0,0,1-2-1.36v0a3.16,3.16,0,0,1-.17-.72s.18.39.31.65a1.79,1.79,0,0,0,3.33-1.32v0c-.11-.29-.53-.38-.87-.41h-.08c-.56-.06-.93-.3-1-.63a.49.49,0,0,1,.08-.36l.15-.26v.3a.32.32,0,0,0,0,.08.59.59,0,0,0,.55.44.63.63,0,0,1,0-.19.86.86,0,0,1,1-.48.87.87,0,0,1,1.07-.26.43.43,0,0,1,.14.13.58.58,0,0,0,.13-.7l0-.06-.2-.23.29.1a.57.57,0,0,1,.29.23c.17.28,0,.71-.35,1.11l0,0s0,0,0,0c-.24.24-.5.59-.39.87v0a1.86,1.86,0,0,0,2.31,1.08,1.84,1.84,0,0,0,1.1-2.2c-.08-.28-.21-.7-.21-.7a3.5,3.5,0,0,1,.36.65l0,.06,0,0v0s0,0,0,0a.74.74,0,0,1,0,.18,2.13,2.13,0,0,1-.15,1.31Zm1.1-6c-.12-.19-.26-.38-.4-.56l.21,0L66.32,25l.66-.15-.64,0,.72-.36-.78.17.47-.42-.6.29.15-.22-.28.17a1.15,1.15,0,0,1,.14-.17c.52-.61,1.18-.91,1.48-.65s.14,1-.38,1.57a2.35,2.35,0,0,1-.5.46ZM136.55,53a2.25,2.25,0,0,1,2.86.43A1,1,0,1,1,138,54.72a1,1,0,0,1,.06-1.37h0a1.82,1.82,0,0,0-1.5-.35Zm.63,1.77a1,1,0,0,1,.63,1.21,1,1,0,0,1-1.85-.6h0a1.83,1.83,0,0,0-1.48.46,2.25,2.25,0,0,1,2.7-1.06ZM135.91,57a1,1,0,0,1,1.15.75,1,1,0,0,1-1.89.4h0a1.86,1.86,0,0,0-1.06,1.14,2.27,2.27,0,0,1,1.8-2.28Zm3.83-5.45A2.3,2.3,0,0,1,142,53.39a1,1,0,0,1-1.89.4,1,1,0,0,1,.74-1.15h0a1.87,1.87,0,0,0-1.14-1.06Zm4.19-26.92a1,1,0,1,1,.87-1.73h0a1.82,1.82,0,0,0-.22-1.53,2.28,2.28,0,0,1,.64,2.83,1,1,0,0,1-1.3.43Zm-1.67-1a1,1,0,0,1-1-.92,1,1,0,0,1,.9-1h0a1.82,1.82,0,0,0-.95-1.22,2.28,2.28,0,0,1,2,2.13,1,1,0,0,1-.92,1Zm-1.94,0A1,1,0,0,1,139.26,22h0a1.82,1.82,0,0,0-1.45-.57,2.27,2.27,0,0,1,2.78.86,1,1,0,0,1-.28,1.34Zm5.88,3h0a1,1,0,0,1-1.34-.28,1,1,0,0,1,.28-1.34,1,1,0,0,1,1.34.29h0a1.91,1.91,0,0,0,.58-1.45,2.28,2.28,0,0,1-.87,2.77Zm18.48,26.67a2.26,2.26,0,0,1,2.89.24,1,1,0,1,1-1.37,0h0a1.82,1.82,0,0,0-1.53-.25Zm.27,3.58a1,1,0,0,1-.69-1.17h0a1.9,1.9,0,0,0-1.46.55A2.27,2.27,0,0,1,165.43,55a1,1,0,1,1-.48,1.86Zm-.64.48a1,1,0,1,1-.68,1.19h0a1.83,1.83,0,0,0-1,1.2,2.25,2.25,0,0,1,1.65-2.39Zm5.85-4h0a1,1,0,0,1-.67,1.19,1,1,0,0,1-1.19-.67,1,1,0,0,1,.67-1.19h0a1.83,1.83,0,0,0-1.2-1,2.28,2.28,0,0,1,2.38,1.66Zm17.36,2.32a1,1,0,1,1-1.06.88h0a1.9,1.9,0,0,0-1.35.77,2.3,2.3,0,0,1,2.41-1.64Zm-.73,2.49a1,1,0,0,1,1.27.47,1,1,0,0,1-.46,1.3,1,1,0,0,1-1.28-.49h0a1.82,1.82,0,0,0-.78,1.35,2.3,2.3,0,0,1,1.26-2.63Zm2,2.3A1,1,0,0,1,189,61.8a1,1,0,0,1-1.34.23h0a1.81,1.81,0,0,0,0,1.56,2.3,2.3,0,0,1-.23-2.91,1,1,0,0,1,1.35-.23Zm-2.25-6.36a2.26,2.26,0,0,1,2.89-.23,1,1,0,0,1,.24,1.35A1,1,0,0,1,188,54.09h0a1.83,1.83,0,0,0-1.55,0Zm-12-7.56a5.75,5.75,0,0,1-1.72-1.3c-.16-.19-.31-.37-.45-.57a4.35,4.35,0,0,1,.51,0,5.63,5.63,0,0,1,2.19.43,6,6,0,0,1,1.79,1.21,6.91,6.91,0,0,1,.64.79,5.44,5.44,0,0,1-.81,0,5.74,5.74,0,0,1-2.15-.55Z" transform="translate(57 36)"/><path class="cls-1" d="M169.78,55a3.56,3.56,0,0,1,1.18.44,3.56,3.56,0,0,0,.65.32c1.15.28,2.63-1.69,2.63-3.06,0-1-.88-2-2.24-2.71a3.87,3.87,0,0,1-2.29-3.41,3.48,3.48,0,0,1,.19-1.13,5.5,5.5,0,0,1,1.87-.74,6.17,6.17,0,0,0,4.87,2.87,7.25,7.25,0,0,0,1.14,0c.08.16.17.33.24.5a4.45,4.45,0,0,1,.24.7,2.77,2.77,0,0,0-.46,1.49c0,1.64,2.86,3.09,5.48,3.09a4.86,4.86,0,0,0,1.74-.27,4.07,4.07,0,0,0,.66-.33,6.09,6.09,0,0,1-3.11,2.72,5.9,5.9,0,0,1-1.78.41.81.81,0,0,0-.1.09,3.7,3.7,0,0,0,3,1.4,3.21,3.21,0,0,0,.63-.06,5.22,5.22,0,0,1-3.27,1.27,5.5,5.5,0,0,1-1.68-.23,3.21,3.21,0,0,0,2,2.08,3.13,3.13,0,0,0,.53.12,4.5,4.5,0,0,1-3,.08,4.82,4.82,0,0,1-1.27-.68,2.68,2.68,0,0,0,1,2.25,2.49,2.49,0,0,0,.38.25,3.71,3.71,0,0,1-2.41-.82,3.62,3.62,0,0,1-.81-.9,2.25,2.25,0,0,0,.15,2.09,2,2,0,0,0,.23.32,3.18,3.18,0,0,1-1.68-1.36,3.49,3.49,0,0,1-.29-.58,4,4,0,0,1-.52.15,2.27,2.27,0,0,1-1.07,0,5.29,5.29,0,0,0-.88-.11,2.42,2.42,0,0,0,.5-.91A7.22,7.22,0,0,1,170,61.49a3.29,3.29,0,1,1-.21-6.46Z" transform="translate(57 36)"/><path class="cls-1" d="M137.58,57.53a3.29,3.29,0,0,0,4.23,3.86l.12,0a7.39,7.39,0,0,0,2-1.17,2.59,2.59,0,0,1-.42.87,7.06,7.06,0,0,1,2.1.13l.21,0A2.65,2.65,0,0,0,148.43,60a2.29,2.29,0,0,0,.16.31,3.54,3.54,0,0,0,1.84,1.54,2.8,2.8,0,0,1-.25-.35,2.53,2.53,0,0,1-.13-2.34,4.13,4.13,0,0,0,.89,1,4.17,4.17,0,0,0,2.66,1,2,2,0,0,1-.42-.29,3,3,0,0,1-1.08-2.52,4.65,4.65,0,0,0,1.4.77,4.85,4.85,0,0,0,3.32,0,3.1,3.1,0,0,1-.58-.15A3.5,3.5,0,0,1,154,56.54a6,6,0,0,0,1.86.29,5.81,5.81,0,0,0,3.66-1.35,5.35,5.35,0,0,1-.7.07,4.18,4.18,0,0,1-3.4-1.72,6.7,6.7,0,0,0,2.18-.43,6.83,6.83,0,0,0,3.52-3,5.17,5.17,0,0,1-.75.36,4.88,4.88,0,0,1-4.56-.62H156c6.82,0,10.55-3.55,13.85-5.26a6.13,6.13,0,0,1,8.66,2.86c.07.2.15.38.18.48s.09.27.14.46l0,.12c0,.11.07.22.12.33a4.11,4.11,0,0,0,.25.52,4.79,4.79,0,0,0,4,2.66c3.44,0,3.4-2.49,5.24-2.49,2.5,0,5,4,2.58,5.17l-.43.2a2.35,2.35,0,0,0-.39.19,3.29,3.29,0,1,0,4.68,4.11,7,7,0,0,0,.32-2.62A2.49,2.49,0,0,1,195.7,58a5.79,5.79,0,0,1,1-1,2.67,2.67,0,0,0,1-2.06,2.61,2.61,0,0,0-.49-1.53,3.22,3.22,0,0,0,1.66,0,3.31,3.31,0,0,0,1.83-1.27,2.43,2.43,0,0,1-.38.13,2.33,2.33,0,0,1-2.11-.45,4,4,0,0,0,1.14-.55,3.85,3.85,0,0,0,1.5-2.13,2.12,2.12,0,0,1-.36.3,2.75,2.75,0,0,1-2.52.34,4.29,4.29,0,0,0,1-1,4.63,4.63,0,0,0,.82-3,2.67,2.67,0,0,1-.29.48,3.23,3.23,0,0,1-2.64,1.39,5,5,0,0,0,.71-1.58,5.31,5.31,0,0,0-.29-3.61,3.44,3.44,0,0,1-.12.64,3.83,3.83,0,0,1-2.36,2.61,5.78,5.78,0,0,0,.14-2,6.18,6.18,0,0,0-1.77-3.86,3.68,3.68,0,0,1,.14.75c.18,2.73-2.27,5.34-6.93,5.34-1.94,0-3.56-2.16-4.55-3.93h4.68a12.85,12.85,0,0,0,1.86-.06,6.63,6.63,0,0,0,2-.61,6.45,6.45,0,0,0,3.09-3.49,6.38,6.38,0,0,0-.38-5.28,5.86,5.86,0,0,0-1.34-1.6,6.48,6.48,0,0,0-4-1.53,8.26,8.26,0,0,0-4,1.2c-1.22.67-2.36,1.46-3.54,2.17a6.81,6.81,0,0,1-3.95,1.34A3.8,3.8,0,0,1,174,27.72a3.72,3.72,0,0,1,2.12-1.11,2.71,2.71,0,0,1,.93.08,2.1,2.1,0,0,1,.84.57,2.38,2.38,0,0,1,.49,2.26,2.74,2.74,0,0,1-1.44,1.7,5.66,5.66,0,0,1-1.35.33,4.93,4.93,0,0,0,.5.07h.28a3,3,0,0,0,.79-.1,3.47,3.47,0,0,0,2.42-2.2,3.64,3.64,0,0,0,.21-1.5,7.52,7.52,0,0,0,1.36.47,7.75,7.75,0,0,0,4,0,6.14,6.14,0,0,1-.72-.15A5,5,0,0,1,181.24,26a4.19,4.19,0,0,0,1.09-.4,3.53,3.53,0,0,0,1.5-1.69,3,3,0,0,0,.24-.94.1.1,0,0,0,0,0v0a3.09,3.09,0,0,0,0-.43,5.13,5.13,0,0,0-.09-1.07,5.91,5.91,0,0,1-.15,1.24,2.81,2.81,0,0,1-2.67,2,16,16,0,0,1-1.95-.23c-.72-.08-1.42-.21-2.12-.31a6.07,6.07,0,0,0-4,1,6.51,6.51,0,0,0-.89,10.17,6.51,6.51,0,0,0,4.85,1.8,9.66,9.66,0,0,0,4.06-1.34c1.2-.66,2.34-1.42,3.52-2.1s2.66-1.46,4.1-.89a2.61,2.61,0,0,1,1.43,3.51,2.53,2.53,0,0,1-2.36,1.55H167.57a2.87,2.87,0,0,1-3-2.87,6.74,6.74,0,0,1-2.07,3.28l-.06-.81a7.64,7.64,0,0,1-3.47,4l.3-1.42s0-.15,0-.36a4.61,4.61,0,0,1-3.12,3l.5-1.24a1.35,1.35,0,0,0,.08-.19,6.94,6.94,0,0,1-.58.75,3.75,3.75,0,0,1-2.73,1.62,2.34,2.34,0,0,1-.73-.13c-.71-.26-1.59-1-1.69-3,0-.2,0-.4,0-.58-4.76-.09-8-5.55-7.44-9.47a2.16,2.16,0,0,1-1.94.54,6.79,6.79,0,0,0,2.19-1.61h0A3.28,3.28,0,0,0,140.74,24a3.3,3.3,0,0,0-2.82,3.28,6.45,6.45,0,0,1-.84,3.27,2.51,2.51,0,0,0-.32,1,2.63,2.63,0,0,0,1.3,2.6.43.43,0,0,1,0,0l-.34.06a3.62,3.62,0,0,0-2,1.31l.41-.14a2.58,2.58,0,0,1,2.24.54v0a4.39,4.39,0,0,0-1.21.55,4.17,4.17,0,0,0-1.7,2.26,3.12,3.12,0,0,1,.4-.32,3,3,0,0,1,2.73-.29,4.83,4.83,0,0,0-1.15,1.11,5,5,0,0,0-1,3.17,5.29,5.29,0,0,1,.32-.5,3.47,3.47,0,0,1,2.9-1.42,6,6,0,0,0-.82,1.69,5.75,5.75,0,0,0,.21,3.89,4.22,4.22,0,0,1,.14-.69,4.16,4.16,0,0,1,2.57-2.71l0,.05a7.11,7.11,0,0,0-.2,2.13,6.76,6.76,0,0,0,1.8,4.23,4.51,4.51,0,0,1-.12-.82,4.91,4.91,0,0,1,1.13-3.43,10.89,10.89,0,0,0,5.19,1.59c-1.17,5.57-5.62,9.35-7.17,8.94l-.25-.12a4,4,0,0,0-.69-.24,3.29,3.29,0,0,0-3.94,2.47Zm39.67-32.26s3.37.51,5.4-.49a3.71,3.71,0,0,1-2.34.89,4.25,4.25,0,0,0,.77,1.1,4.59,4.59,0,0,0,1.34,1.05,9.08,9.08,0,0,1-3.25-1.11,9.18,9.18,0,0,1-.12,2.28,4.12,4.12,0,0,0-1.8-3.72Z" transform="translate(57 36)"/><path class="cls-2" d="M156.86,32a1,1,0,0,0,0,.35A37.4,37.4,0,0,1,155.38,36s.53-1.76,1.25-3.75a3.23,3.23,0,0,0,.23-.27" transform="translate(57 36)"/><path class="cls-1" d="M151,30.77s-2.26,1.65-1.48,5.55c0,0,.91-1.69,1.54-.66a4.37,4.37,0,0,0-.53,3.57,1,1,0,0,1,1.21-.93s-.79,3.89,1.2,4.61,3.89-2.75,3.89-2.75a1,1,0,0,1,.33,1.48A4.39,4.39,0,0,0,159,38.56c1.16-.37.77,1.5.77,1.5,3.1-2.49,2.42-5.2,2.42-5.2,1.31-.1,1,1.6,1,1.6a4.67,4.67,0,0,0,.85-4.18,3.94,3.94,0,0,0,.22-.55,5.08,5.08,0,0,0,.28-.94c1.54-.27,2.64-.94,2.61-1.67,0-.51-.58-.95-1.45-1.21A2.7,2.7,0,0,1,164,26.46a6.21,6.21,0,0,0-.52-.95.54.54,0,0,1,0-.64l.43-.56-.94.13a.68.68,0,0,1-.56-.17l-.08-.08a.39.39,0,0,1-.12-.43l.28-.85-.78.41a.61.61,0,0,1-.61,0l-.1-.05a.84.84,0,0,1-.43-.7l0-.87-.59.66a.82.82,0,0,1-.77.24l-.12,0a.66.66,0,0,1-.47-.39l-.32-.82-.34.84a.42.42,0,0,1-.37.25h-.1a.67.67,0,0,1-.55-.23l-.63-.7,0,.69a.57.57,0,0,1-.39.52,7.27,7.27,0,0,0-1,.39,2.69,2.69,0,0,1-2.17.07c-.84-.36-1.55-.38-1.89,0-.49.55-.08,1.75.93,2.95a6.81,6.81,0,0,0-.41.91c-.07.19-.12.37-.18.57a4.67,4.67,0,0,0-2,3.74s.83-1.52,1.77-.61Zm13.61-.59c0-.23,0-.46.05-.69l.2.12-.15-.23.6.31-.48-.42.78.18-.7-.38h.63l-.65-.16.26-.08-.33,0,.22-.05c.79-.14,1.49.06,1.55.46s-.51.82-1.3.95a2.67,2.67,0,0,1-.68,0Zm-8.18-1.62h-.25a2,2,0,0,1-.72-.1l-.19,0,.08-.18a.49.49,0,0,0,0-.11l0,0v0a1.93,1.93,0,0,0,.08-.39,2,2,0,0,1-1-1.24,1.94,1.94,0,0,0,.69,1.51l-.21.27-.23-.17a2,2,0,0,1-.64-2.23h0v0c0-.05,0-.1.07-.16l.17-.37.15.38a.15.15,0,0,0,.06.09v0l.1.07h0a.18.18,0,0,0,.1,0h.1l.06,0,.07,0,.06,0,.15.07.24.13-.15-.66.51.78a1.52,1.52,0,0,0,.5.47l.1.08,0,.12-.06.26a2.86,2.86,0,0,0-.08.63,3.31,3.31,0,0,0,.06.48l.06.15Zm4.68,1.83-.29,0,0-.33a1.92,1.92,0,0,0,1.49-.72,2.05,2.05,0,0,1-1.6.27,2.91,2.91,0,0,0-.18.35.64.64,0,0,1,0,.07,1,1,0,0,0,0,.1l-.05.19-.18-.08a2,2,0,0,1-.61-.39l-.19-.16.22-.12a.42.42,0,0,0,.13-.07,2.79,2.79,0,0,0,.35-.34,3.41,3.41,0,0,0,.36-.52c0-.09.08-.16.11-.24l0-.13.13,0a1.71,1.71,0,0,0,.69-.05l.89-.27-.54.42a1,1,0,0,1,.26.05l.16,0,.07,0,0,.07,0,0a.38.38,0,0,0,.08.09.18.18,0,0,0,.1,0s0,0,0,0h.15l.11,0,.34-.21-.09.4-.06.17h0v0a2,2,0,0,1-1.92,1.29Zm-8,0c0-.05,0-.11.05-.18v0l0,0a0,0,0,0,1,0,0l0-.07a3.38,3.38,0,0,1,.36-.66l-.21.71a1.85,1.85,0,0,0,1.1,2.21,1.89,1.89,0,0,0,2.31-1.09h0c.11-.29-.15-.64-.39-.88a.08.08,0,0,1,0,0l0,0c-.39-.4-.53-.83-.35-1.11a.57.57,0,0,1,.29-.23l.28-.1-.19.22,0,.06a.62.62,0,0,0,.14.71.62.62,0,0,1,.14-.14.91.91,0,0,1,1.08.27.86.86,0,0,1,1,.48.63.63,0,0,1,0,.19.57.57,0,0,0,.55-.45v-.37l.15.27a.46.46,0,0,1,.08.35c0,.33-.42.58-1,.63h-.08c-.34,0-.76.14-.87.43h0a1.8,1.8,0,0,0,3.33,1.34c.13-.26.31-.67.31-.67a3.18,3.18,0,0,1-.17.73v0a2.07,2.07,0,0,1-2,1.37,2.34,2.34,0,0,1-.74-.12l-.14-.06c-1.08,2-2.3,3.3-3.09,3s-.92-2-.44-4.29l-.14,0a2.12,2.12,0,0,1-1.36-2.39Zm-1.44-5.16c-.52-.61-.69-1.32-.38-1.58s1,0,1.48.66l.13.17-.27-.17.14.22-.6-.3.48.43-.78-.18.72.37-.64,0,.65.14-.25.09.23,0a6,6,0,0,0-.42.57,2.4,2.4,0,0,1-.49-.47ZM132.84,58.25V23.88l-.59-.59-2.68.77-.83.29-1.34.43-.71-.71a2.72,2.72,0,0,1-.38-.1,15.08,15.08,0,0,0-16.93,2.9,15,15,0,0,0-4.39-3A15.12,15.12,0,0,0,92.45,24l-.32.1-.75.75-2.07-.67-1.65-.5-1-.3-.56.55V58.25l19,2.53a2.41,2.41,0,0,0-.08.6c0,1.72,2,3.12,4.45,3.12s4.44-1.4,4.44-3.12a2.62,2.62,0,0,0-.07-.57l0,0Zm-45.7-.49-.52-.07V24l.52.14Zm44.61-33.6.51-.14V57.69l-.51.07Zm-22,3.35a14.39,14.39,0,0,1,16.12-3l.09,28.18a23.36,23.36,0,0,0-16.21,2.72Zm-16.8-3a14.4,14.4,0,0,1,16.12,3V55.39h0v0a21.37,21.37,0,0,0-7.24-2.75h0l-.14,0h0l-.14,0h0l-.56-.08h0l-.12,0h-.35l-.36-.05h-.63l-.13,0H94.55l-.08,0h-.24c-.61.09-1.08.18-1.4.24l0-14.11Zm-1.71,1.93.25-.58.78-.76-.09,28a.43.43,0,0,0,.06.18l-1,.94h0ZM113.3,59l-.93.26s2.08,2.82-3,2.84-3-2.84-3-2.84L105.5,59,88.77,56.15V24.84l2,.62-.27.25a.49.49,0,0,0-.12.3V54.6a.41.41,0,0,0,.34.41l.11,0,16,2.86a2.52,2.52,0,0,0,.3.71,3.4,3.4,0,0,0,.18.3,1.88,1.88,0,0,0,1,.67h0a2.62,2.62,0,0,0,.4.11,2.94,2.94,0,0,0,.68.05,2.31,2.31,0,0,0,1.3-.22l0,0,.08,0a1.75,1.75,0,0,0,.73-.57,1.82,1.82,0,0,0,.34-1.1L128.16,55a.41.41,0,0,0,.33-.41V26a.5.5,0,0,0,0-.13l0,0a.21.21,0,0,0-.06-.1l-.29-.32,1.78-.57,0,.51v30.8Z" transform="translate(57 36)"/><path class="cls-1" d="M110.89,26.27a12.42,12.42,0,0,1,2.5-1.84,12.77,12.77,0,0,1,6.41-1.73,14.16,14.16,0,0,1,4.87.89l.08,27.73a25.25,25.25,0,0,0-3.36-.22,24.79,24.79,0,0,0-5.75.66,21.64,21.64,0,0,0-4.75,1.69Zm-3,0a12.42,12.42,0,0,0-2.5-1.84A12.77,12.77,0,0,0,99,22.7a14.25,14.25,0,0,0-4.88.89L94,51.32a25.29,25.29,0,0,1,3.37-.22,24.77,24.77,0,0,1,5.74.66,21.46,21.46,0,0,1,4.75,1.69Z" transform="translate(57 36)"/><path class="cls-1" d="M203,15.76V179.81a38.53,38.53,0,0,1-.56,6.49l-.07.39c-1.9,10.51-8.27,21.21-18.76,31.48a128,128,0,0,1-11.9,10.21,210.74,210.74,0,0,1-30.81,19.11c-1.11.57-2.13,1.09-3.15,1.59h0l-.1.06a276.45,276.45,0,0,1-27.48,12l-.73.26-.72-.26a275.33,275.33,0,0,1-27.48-12l-.11-.06h0c-1-.5-2-1-3.14-1.59a210.88,210.88,0,0,1-30.82-19.11,129.53,129.53,0,0,1-11.91-10.21c-10.47-10.27-16.86-21-18.76-31.48l-.07-.39a39.58,39.58,0,0,1-.55-6.49v-164Zm3-3H12.83V179.81a42.3,42.3,0,0,0,.6,7l.07.4h0v0a45.91,45.91,0,0,0,2.42,8.47,55.82,55.82,0,0,0,4.13,8.36,71.09,71.09,0,0,0,5.76,8.23,94.36,94.36,0,0,0,7.32,8.05,130.07,130.07,0,0,0,12.19,10.44,212.52,212.52,0,0,0,31.26,19.39h0c1,.51,2,1,3.16,1.61l0,0,0,0,0,0,.07,0A281.39,281.39,0,0,0,107.7,264l.72.26,1,.36,1-.36.73-.26A282.18,282.18,0,0,0,139,251.88l.08,0,0,0,0,0,0,0c1.17-.57,2.18-1.1,3.18-1.61a212.92,212.92,0,0,0,31.25-19.39,127.72,127.72,0,0,0,12.2-10.44,94.36,94.36,0,0,0,7.32-8.05,72.34,72.34,0,0,0,5.76-8.23A56.72,56.72,0,0,0,203,195.7a45.91,45.91,0,0,0,2.42-8.47v0h0l.07-.4a41.24,41.24,0,0,0,.6-7V12.74Z" transform="translate(57 36)"/><path class="cls-1" d="M213.16,5.62V179.81a49,49,0,0,1-.69,8.17l-.08.47v0A57.83,57.83,0,0,1,205,207.71a89,89,0,0,1-14.22,17.71h0a139.2,139.2,0,0,1-12.86,11,222.45,222.45,0,0,1-32.29,20h0l-3.22,1.64-.13.07-.13.06a282.52,282.52,0,0,1-28.48,12.4l-4.16,1.49-4.15-1.49a282.52,282.52,0,0,1-28.48-12.4l-.13-.06-.14-.07-3.22-1.64h0A221.73,221.73,0,0,1,41,236.45a137.47,137.47,0,0,1-12.85-11h0a89,89,0,0,1-14.21-17.71A57.86,57.86,0,0,1,6.5,188.49v0L6.42,188a49.18,49.18,0,0,1-.69-8.18V5.62Zm5-5H.77V179.81a53.53,53.53,0,0,0,.77,9l.08.47v0l0,.06a62.59,62.59,0,0,0,8,20.87,94,94,0,0,0,15,18.69h0v0A140.67,140.67,0,0,0,38,240.39,225.7,225.7,0,0,0,71,260.9h0l3.26,1.65.13.07.06,0,.06,0,.08,0a290.64,290.64,0,0,0,29,12.62l4.16,1.49,1.67.6,1.68-.6,4.16-1.49a292,292,0,0,0,29-12.61l.08,0,.06,0,.05,0,.13-.06,3.26-1.66h0a225,225,0,0,0,33-20.51A140.83,140.83,0,0,0,194.19,229h0v0a93.63,93.63,0,0,0,15-18.69,62.83,62.83,0,0,0,8.05-20.87v-.1l.08-.47a53.52,53.52,0,0,0,.76-9V.66Z" transform="translate(57 36)"/><path class="cls-3" d="M-56.67-35.81-57-36l0,0Z" transform="translate(57 36)"/></svg>