<?xml version="1.0" standalone="no"?>
<!DOCTYPE svg PUBLIC "-//W3C//DTD SVG 20010904//EN"
 "http://www.w3.org/TR/2001/REC-SVG-20010904/DTD/svg10.dtd">
<svg version="1.0" xmlns="http://www.w3.org/2000/svg"
 width="320.000000pt" height="320.000000pt" viewBox="0 0 320.000000 320.000000"
 preserveAspectRatio="xMidYMid meet">
<metadata>
Created by potrace 1.14, written by Peter Selinger 2001-2017
</metadata>
<g transform="translate(0.000000,320.000000) scale(0.100000,-0.100000)"
fill="#000000" stroke="none">
<path d="M611 2882 l4 -317 -27 -2 c-16 0 -28 3 -28 8 0 5 -36 9 -80 9 -47 0
-80 -4 -80 -10 0 -5 -18 -10 -39 -10 -22 0 -43 5 -46 10 -3 6 -37 10 -75 10
-38 0 -72 -4 -75 -10 -3 -5 -42 -10 -86 -10 l-79 0 0 -1280 0 -1280 1600 0
1600 0 0 1600 0 1600 -1296 0 -1296 0 3 -318z m974 -412 c130 1 292 -17 318
-35 12 -8 18 -15 13 -15 -5 0 -3 -6 3 -13 6 -8 9 -16 6 -19 -3 -2 30 -12 73
-22 86 -20 178 -65 214 -103 l23 -26 -25 6 c-14 3 -43 10 -65 16 -71 18 -264
24 -395 12 -148 -14 -241 -29 -256 -42 -7 -5 -17 -8 -24 -7 -27 6 -200 -224
-264 -351 -15 -28 -46 -111 -71 -184 -49 -149 -68 -280 -56 -390 4 -38 4 -70
-1 -73 -10 -6 -88 36 -88 48 0 4 -7 8 -15 8 -7 0 -18 6 -22 13 -4 6 -15 17
-24 22 -63 40 -100 74 -110 103 -28 84 8 281 82 452 87 197 92 236 27 173 -16
-15 -39 -28 -51 -28 -13 -1 -28 -5 -35 -9 -7 -4 -12 -2 -12 5 0 6 -8 9 -20 6
-21 -5 -36 8 -42 38 -2 12 -10 19 -21 17 -9 -2 -17 2 -17 8 0 5 -6 10 -14 10
-8 0 -25 17 -37 38 -13 20 -27 39 -31 40 -18 8 -6 39 25 63 17 14 82 46 142
71 162 68 258 97 550 166 22 5 60 8 85 5 25 -2 86 -4 135 -3z m799 -230 c9
-22 15 -27 23 -19 16 16 43 3 43 -20 0 -14 5 -18 20 -14 23 6 28 -15 5 -23
-26 -10 -17 -21 14 -16 23 3 33 -2 50 -26 27 -39 27 -43 -9 -77 -56 -53 -176
-242 -140 -220 5 3 -5 -27 -21 -67 -86 -206 -169 -485 -169 -571 0 -23 -5 -49
-10 -57 -19 -29 -10 72 15 183 27 123 80 281 136 412 33 78 35 86 14 60 -14
-16 -30 -46 -36 -65 -7 -19 -22 -56 -35 -82 -13 -26 -33 -82 -45 -125 -11 -43
-27 -93 -35 -110 -8 -18 -21 -74 -28 -125 l-14 -93 -2 75 -2 75 -9 -55 c-10
-65 -2 -171 17 -217 17 -40 17 -43 2 -43 -18 0 -177 114 -210 150 -40 44 -39
55 36 369 9 38 11 60 4 53 -6 -6 -16 -8 -22 -6 -27 10 -198 -197 -233 -281
-19 -48 -33 -58 -33 -25 0 11 -4 20 -10 20 -5 0 -10 9 -10 19 0 11 -4 22 -9
25 -5 3 -12 22 -15 41 -4 19 -11 35 -16 35 -6 0 -10 20 -10 45 0 36 -7 54 -34
90 -19 24 -37 54 -41 65 -11 33 -21 23 -50 -47 -16 -38 -45 -109 -66 -160 -44
-105 -71 -237 -68 -335 1 -38 0 -69 -4 -70 -9 -5 -134 102 -165 141 -46 58
-51 73 -47 147 3 53 15 100 54 201 28 73 51 138 51 145 0 6 17 48 38 92 21 45
51 114 67 154 31 80 61 127 51 82 -4 -14 4 -5 16 20 15 31 23 70 26 128 2 45
8 82 13 82 4 0 31 -13 59 -30 28 -16 56 -30 61 -30 14 0 95 -48 109 -65 8 -10
6 -30 -10 -84 -12 -39 -20 -76 -17 -83 3 -7 6 -4 6 7 1 11 5 26 10 34 5 8 6
-53 3 -141 -3 -109 -1 -157 6 -162 14 -8 52 10 52 25 0 18 113 149 212 245 96
95 248 217 258 208 3 -3 -3 -11 -13 -18 -18 -14 -22 -26 -8 -26 9 0 44 53 95
143 32 56 60 63 80 17z m-1614 -1360 c0 -15 -7 -20 -25 -20 -24 0 -25 -2 -25
-70 0 -63 -2 -70 -20 -70 -18 0 -20 7 -20 70 0 63 -2 70 -19 70 -11 0 -23 5
-26 10 -13 21 8 30 71 30 57 0 64 -2 64 -20z m160 0 c24 -24 25 -47 4 -71 -14
-16 -14 -20 0 -48 20 -38 20 -41 -4 -41 -12 0 -26 12 -35 30 -9 17 -22 30 -30
30 -10 0 -15 -10 -15 -30 0 -23 -4 -30 -20 -30 -19 0 -20 7 -20 90 l0 90 50 0
c37 0 55 -5 70 -20z m178 -63 c17 -45 32 -86 32 -90 0 -14 -31 -7 -36 8 -4 10
-20 15 -44 15 -24 0 -40 -5 -44 -15 -5 -15 -36 -22 -36 -8 0 4 15 45 33 90 20
53 37 83 47 83 10 0 27 -30 48 -83z m149 26 l38 -57 3 57 c2 42 7 57 17 57 12
0 15 -18 15 -91 0 -80 -2 -90 -17 -87 -10 2 -34 28 -55 57 l-38 54 0 -56 c0
-50 -2 -57 -20 -57 -19 0 -20 7 -20 90 0 83 2 90 20 90 13 0 33 -19 57 -57z
m229 43 c26 -19 6 -43 -23 -28 -10 6 -25 7 -32 3 -15 -9 -10 -13 44 -41 36
-18 44 -53 19 -81 -32 -35 -126 -13 -110 26 4 12 10 14 25 5 27 -14 61 -13 61
3 0 7 -19 21 -42 32 -48 22 -58 47 -32 76 20 22 62 25 90 5z m122 2 c5 -7 16
-32 23 -56 14 -48 19 -46 43 21 12 32 23 47 36 47 14 0 19 -11 24 -52 4 -29 9
-70 12 -90 5 -34 3 -38 -15 -38 -18 0 -21 6 -21 39 0 22 -4 43 -10 46 -5 3
-10 2 -10 -3 0 -5 -7 -26 -15 -45 -18 -45 -39 -40 -56 11 -19 59 -24 60 -29 7
-4 -38 -9 -51 -24 -53 -17 -4 -18 1 -11 70 3 40 9 81 11 91 6 20 27 22 42 5z
m312 -8 c0 -17 -7 -20 -45 -20 -33 0 -45 -4 -45 -15 0 -10 11 -15 35 -15 24 0
35 -5 35 -15 0 -10 -11 -15 -35 -15 -28 0 -35 -4 -35 -20 0 -17 7 -20 45 -20
38 0 45 -3 45 -20 0 -18 -7 -20 -65 -20 l-65 0 0 83 c0 46 3 87 7 90 3 4 33 7
65 7 51 0 58 -2 58 -20z m136 10 c37 -15 53 -38 53 -80 0 -58 -38 -90 -108
-90 l-41 0 0 90 0 90 34 0 c19 0 47 -5 62 -10z m139 -80 c0 -73 -2 -85 -17
-88 -16 -3 -18 6 -18 88 0 82 2 91 18 88 15 -3 17 -15 17 -88z m166 18 c43
-105 43 -108 20 -108 -12 0 -21 7 -21 15 0 11 -11 15 -39 15 -25 0 -41 -5 -45
-15 -6 -16 -36 -21 -36 -6 0 6 14 46 32 91 22 56 36 80 46 78 9 -2 28 -33 43
-70z"/>
<path d="M1338 2443 c7 -3 16 -2 19 1 4 3 -2 6 -13 5 -11 0 -14 -3 -6 -6z"/>
<path d="M1513 2441 c-45 -4 -85 -10 -89 -13 -3 -4 33 -5 82 -1 104 7 111 -3
9 -12 -117 -11 -88 -18 40 -10 120 7 163 15 89 15 -36 1 -38 2 -20 15 23 17
33 17 -111 6z"/>
<path d="M1728 2443 c6 -2 18 -2 25 0 6 3 1 5 -13 5 -14 0 -19 -2 -12 -5z"/>
<path d="M1325 2405 l-40 -14 50 6 c28 3 54 9 60 14 13 13 -23 10 -70 -6z"/>
<path d="M1248 2383 c6 -2 18 -2 25 0 6 3 1 5 -13 5 -14 0 -19 -2 -12 -5z"/>
<path d="M1430 2340 c-8 -5 -27 -10 -42 -10 -15 0 -29 -3 -31 -7 -7 -11 95
-10 111 0 6 5 12 12 12 18 0 12 -31 11 -50 -1z"/>
<path d="M1150 2330 c-8 -5 -10 -10 -5 -10 6 0 17 5 25 10 8 5 11 10 5 10 -5
0 -17 -5 -25 -10z"/>
<path d="M1310 2310 c0 -5 7 -7 15 -4 8 4 15 8 15 10 0 2 -7 4 -15 4 -8 0 -15
-4 -15 -10z"/>
<path d="M1264 2109 c-20 -22 -23 -28 -8 -19 18 11 50 50 41 50 -2 0 -16 -14
-33 -31z"/>
<path d="M1079 2043 c-26 -16 -74 -103 -124 -222 -34 -83 -95 -306 -94 -345 1
-21 6 -10 15 34 17 78 63 221 75 235 5 5 9 15 9 22 0 24 100 237 115 246 13 7
41 47 33 47 -2 0 -15 -8 -29 -17z"/>
<path d="M1206 2027 c3 -10 9 -15 12 -12 3 3 0 11 -7 18 -10 9 -11 8 -5 -6z"/>
<path d="M1151 1950 c-12 -22 -20 -40 -17 -40 7 0 49 71 44 75 -2 3 -15 -13
-27 -35z"/>
<path d="M1076 1893 c-6 -14 -5 -15 5 -6 7 7 10 15 7 18 -3 3 -9 -2 -12 -12z"/>
<path d="M1107 1863 c-12 -24 -38 -102 -77 -228 -5 -16 -11 -48 -14 -70 l-6
-40 10 35 c37 126 83 269 96 294 8 16 13 31 10 33 -2 3 -11 -8 -19 -24z"/>
<path d="M1050 1849 c-7 -11 -10 -23 -7 -25 2 -2 9 7 15 21 14 30 7 33 -8 4z"/>
<path d="M2411 2067 l-25 -32 32 29 c33 31 37 36 25 35 -5 0 -19 -14 -32 -32z"/>
<path d="M2169 2043 l-24 -28 28 24 c25 23 32 31 24 31 -2 0 -14 -12 -28 -27z"/>
<path d="M1593 2000 c0 -36 2 -50 4 -32 2 17 2 47 0 65 -2 17 -4 3 -4 -33z"/>
<path d="M2114 1992 c-11 -9 -47 -46 -80 -82 l-59 -65 80 70 c44 38 82 70 84
71 1 2 1 7 0 13 -2 6 -13 3 -25 -7z"/>
<path d="M2156 1805 c-9 -26 -7 -32 5 -12 6 10 9 21 6 23 -2 3 -7 -2 -11 -11z"/>
<path d="M1329 1724 c-12 -25 -19 -48 -16 -50 2 -2 14 18 25 46 26 63 18 66
-9 4z"/>
<path d="M1844 1738 c-17 -18 -50 -58 -73 -88 l-43 -55 46 50 c54 58 109 125
104 125 -2 0 -18 -15 -34 -32z"/>
<path d="M1672 1685 c0 -16 2 -22 5 -12 2 9 2 23 0 30 -3 6 -5 -1 -5 -18z"/>
<path d="M2220 1595 c-25 -59 -51 -147 -45 -153 7 -7 7 -7 42 101 33 103 35
126 3 52z"/>
<path d="M1681 1614 c0 -11 3 -14 6 -6 3 7 2 16 -1 19 -3 4 -6 -2 -5 -13z"/>
<path d="M2081 1603 c0 -12 -4 -30 -7 -40 -5 -17 -5 -17 6 0 6 10 9 28 7 40
-4 22 -4 22 -6 0z"/>
<path d="M1329 1534 c-5 -15 -8 -29 -5 -31 2 -2 8 10 14 26 13 38 5 41 -9 5z"/>
<path d="M1306 1475 c-3 -9 -6 -22 -5 -28 0 -7 5 -1 10 12 5 13 8 26 5 28 -2
2 -6 -3 -10 -12z"/>
<path d="M2171 1414 c0 -11 3 -14 6 -6 3 7 2 16 -1 19 -3 4 -6 -2 -5 -13z"/>
<path d="M2162 1360 c0 -14 2 -19 5 -12 2 6 2 18 0 25 -3 6 -5 1 -5 -13z"/>
<path d="M1357 1301 c-18 -39 -22 -92 -10 -105 7 -6 34 134 29 141 -1 2 -10
-15 -19 -36z"/>
<path d="M850 840 c0 -33 15 -38 46 -15 19 15 19 15 0 30 -31 23 -46 18 -46
-15z"/>
<path d="M1047 810 c-4 -15 0 -20 13 -20 13 0 17 5 13 20 -3 11 -9 20 -13 20
-4 0 -10 -9 -13 -20z"/>
<path d="M2000 810 c0 -47 2 -50 25 -50 15 0 31 9 41 25 15 23 15 27 0 50 -10
16 -26 25 -41 25 -23 0 -25 -3 -25 -50z"/>
<path d="M2310 831 c0 -5 -3 -16 -6 -25 -4 -11 0 -16 14 -16 15 0 19 5 15 20
-6 22 -23 38 -23 21z"/>
</g>
</svg>
