<svg id="Layer_1" data-name="Layer 1" xmlns="http://www.w3.org/2000/svg" viewBox="0 0 852.01 546.22"><defs><style>.cls-1{fill:none;stroke:#fff;stroke-miterlimit:10;stroke-width:2px;}</style></defs><path class="cls-1" d="M906.55,461.23c-36.84-134.9-117.07-233-190.74-233-33.81,0-51,15.47-62.4,27.24a27.61,27.61,0,0,1-19.52,7.74H523.72l-157.6.17c-7.74,0-15-2.86-19.52-7.74-11.6-11.94-25.23-27.25-62.4-27.25-73.67,0-154.07,97.9-190.57,232.8C52.42,612.1,81.68,747.51,160.23,769.37c7.41,2,98.74,32.13,186.71-154.24a79.32,79.32,0,0,0,56.35,23.55c44.24,0,80.23-36.33,80.23-81.07A81.54,81.54,0,0,0,476,523.8H525.4a80.83,80.83,0,0,0-7.4,33.81c0,44.74,36,81.07,80.24,81.07a79.31,79.31,0,0,0,55.67-22.88c49,109,127,171.74,186.54,153.57C917.82,745.66,947.59,612.1,906.55,461.23ZM403.12,591.58c-18,0-32.8-15.3-32.8-33.81s14.8-33.8,32.8-33.8,32.8,15.3,32.8,33.8C435.92,576.45,421.12,591.58,403.12,591.58Zm194.61,0c-18,0-32.8-15.3-32.8-33.81s14.8-33.8,32.8-33.8,32.8,15.3,32.8,33.8C630.7,576.45,615.9,591.58,597.73,591.58ZM827.16,724.13c-49.45,15.64-121.61-74.35-155.08-196.46,0-.17-9.09-50.8-64.59-50.8h-215c-29.94,0-56.51,20.52-64.59,50.63v.17C294.63,649.78,222.47,739.6,172.85,724.13c-44.41-14-69.8-118.59-33.81-250.29C172.35,351.56,240.47,275.7,284.37,275.7c13.29,0,22.71,7.23,28.42,12.95,13.63,14.13,33.14,22,53.49,22H633.73c20.35,0,40-8.07,53.48-22,5.72-5.89,13.29-12.95,28.43-12.95,43.9,0,112,75.86,145.33,198.14C897,605.54,871.4,710,827.16,724.13Z" transform="translate(-73.99 -227.27)"/><path class="cls-1" d="M438.78,344.83H415.23a23.55,23.55,0,0,0,0,47.1h23.55a23.55,23.55,0,0,0,0-47.1Z" transform="translate(-73.99 -227.27)"/><path class="cls-1" d="M584.61,344.83H561.06a23.55,23.55,0,1,0,0,47.1h23.55a23.55,23.55,0,0,0,0-47.1Z" transform="translate(-73.99 -227.27)"/><path class="cls-1" d="M317.34,409.25H287.56V378.64a23.55,23.55,0,1,0-47.09,0v30.61H210.53a23.55,23.55,0,0,0,0,47.1H240.3V487a23.55,23.55,0,1,0,47.1,0V456.35h29.94a23.55,23.55,0,0,0,0-47.1Z" transform="translate(-73.99 -227.27)"/><path class="cls-1" d="M789.48,409.25H759.71V378.64a23.55,23.55,0,0,0-47.1,0v30.61H682.84a23.55,23.55,0,0,0,0,47.1h29.77V487a23.55,23.55,0,0,0,47.1,0V456.35h29.77a23.55,23.55,0,0,0,0-47.1Z" transform="translate(-73.99 -227.27)"/></svg>