<svg id="Capa_1" data-name="Capa 1" xmlns="http://www.w3.org/2000/svg" viewBox="0 0 566.16 588.6"><defs><style>.cls-1{fill:#fff;}</style></defs><path class="cls-1" d="M159.21,250h-.33c-1.57,6.57-3.15,14.93-4.88,21.31l-6.27,23.34,23.56.1-6.7-23.51C162.7,264.68,160.79,256.52,159.21,250Z" transform="translate(-11.22)"/><path class="cls-1" d="M263,247.89A55.66,55.66,0,0,0,251,249.12v75.31a50.49,50.49,0,0,0,9.16.66c24.17.6,40.22-12.38,40.22-40.49C300.59,260.17,286,247.5,263,247.89Z" transform="translate(-11.22)"/><path class="cls-1" d="M359,537.78c.77.05,1.55.11,2.34.11h178.2a37.85,37.85,0,0,0,37.8-37.8V87a37.85,37.85,0,0,0-37.8-37.8H361.38c-.79,0-1.57.08-2.34.12V0L11.22,46.42V541L359,588.6ZM359,71a15.09,15.09,0,0,1,2.34-.24h178.2A16.22,16.22,0,0,1,555.78,87V500.1a16.22,16.22,0,0,1-16.2,16.2H361.38a15.09,15.09,0,0,1-2.34-.24V71ZM81.2,321.34A52.53,52.53,0,0,0,100,318.17l3.44,19c-4.18,2.12-13.56,4.26-25.63,3.94-33.53-.89-50.38-23.63-50.38-53.14,0-35.35,23.09-55.64,52.58-56.42,11.66-.31,20.59,2,24.64,4.15L100,255.11a45.63,45.63,0,0,0-19-3.67C63.45,251.74,50,263.31,50,286.62,50,307.61,61.41,321,81.2,321.34Zm102,21-8.37-28.75-30.52-.38-7.45,27.93-24.18-.62,31.63-108.79,31.64-.8L210,343Zm126.24-10.75c-12.79,10-31.95,14.41-54.94,13.8a226,226,0,0,1-29.43-2.47V231.15a233.5,233.5,0,0,1,35.14-3.28c22.4-.57,37.16,3,48.87,11.36,12.74,8.89,20.81,23.44,20.81,44.48C329.87,306.5,321.24,322.1,309.42,331.55Z" transform="translate(-11.22)"/><path class="cls-1" d="M397.69,353.16,411,340.71l37.25-95.35,37.27,95.35,13.27,12.45,18.48,32.38L509,349l1.41-16.9-22.08-60h12.26v9.68h6V256.35h-6V266H486.15l-14.3-38.89a27.69,27.69,0,0,0-21.72-38.73V155.36h-7.49v33.06a27.78,27.78,0,0,0-24.13,27.49,27.5,27.5,0,0,0,4.61,15.3L410.29,266h-15v-9.69h-6V281.7h6V272H408.1l-22.07,60,1.4,16.9-8.22,36.59Zm49.13-156.47A19.27,19.27,0,1,1,427.54,216,19.27,19.27,0,0,1,446.82,196.69Z" transform="translate(-11.22)"/><path class="cls-1" d="M446.82,206.74a9.5,9.5,0,1,1-9.5,9.49A9.49,9.49,0,0,1,446.82,206.74Z" transform="translate(-11.22)"/></svg>