<svg id="Designer" xmlns="http://www.w3.org/2000/svg" viewBox="0 0 280.3 224.6"><defs><style>.cls-1{fill:#fff;}</style></defs><path class="cls-1" d="M175,38.3a38.8,38.8,0,1,1-38.8,38.8A38.84,38.84,0,0,1,175,38.3Zm5.9,224.5,109.4.1c-7.9-37.6-31.9-110.4-45.4-131-9.9-15.1-25.3-21.5-41.7-16.6-9.5,2.8-15.9,8.4-21.4,17.1C177.9,138.7,169,159,169,159H122a17.66,17.66,0,0,0-7.3,1.5l5.7-11.8a6,6,0,0,0-10.8-5.2L89.8,184.3l-7.2-7.8a7.72,7.72,0,0,0-5.7-2.5H16.6a6.59,6.59,0,0,0-6.6,6.6,7.77,7.77,0,0,0,2.1,5c7.8,8.8,26.2,28.7,37.8,41.3a18,18,0,0,0-13,17.1c0,11.2,8.7,18.9,19,18.9H169.8l36.5-76.3a5,5,0,0,1,9.1,4.3ZM65.5,226,28.8,186H73.9a2.34,2.34,0,0,1,1.8.8l8.4,9.2-6.7,13.8A6,6,0,1,0,88.2,215l4.6-9.4,18.9,20.5H65.5Zm71.5,0h-9L98.5,193.8l5.3-10.9A19.14,19.14,0,0,0,122,196h29Z" transform="translate(-10 -38.3)"/></svg>