<svg id="Layer_1" data-name="Layer 1" xmlns="http://www.w3.org/2000/svg" viewBox="0 0 429.81 512"><defs><style>.cls-1{fill:#fff;}</style></defs><path class="cls-1" d="M221.7,294.27a15.82,15.82,0,1,1-16.82-26.81l23.49-14.73L41.1,138.55v231.6L68,353.3a15.82,15.82,0,1,1,16.82,26.81L57,397.54,242.67,511V281.12Zm-50.82,31.86L135.6,348.26a15.83,15.83,0,0,1-16.82-26.82l35.29-22.12a15.82,15.82,0,1,1,16.81,26.81Z" transform="translate(-41.1)"/><path class="cls-1" d="M444,353.3l26.87,16.85V138.55L283.61,252.72l23.51,14.74a15.82,15.82,0,1,1-16.82,26.81l-22.64-14.19V512L455.19,397.66l-28-17.55A15.82,15.82,0,1,1,444,353.3Zm-45.82-10a15.81,15.81,0,0,1-21.81,5l-35.29-22.13a15.82,15.82,0,1,1,16.82-26.81l35.28,22.12A15.82,15.82,0,0,1,398.21,343.26Z" transform="translate(-41.1)"/><polygon class="cls-1" points="417.25 116.29 226.56 0 226.56 233.09 418.07 116.29 417.25 116.29"/><polygon class="cls-1" points="12.55 116.29 11.73 116.29 201.58 232.08 201.58 1.02 12.55 116.29"/></svg>